<svg width="637" height="183" viewBox="0 0 637 183" fill="none" xmlns="http://www.w3.org/2000/svg">
<rect x="228" y="173" width="115" height="10" rx="5" fill="white"/>
<circle cx="371.333" cy="178" r="5" fill="white"/>
<circle cx="404.667" cy="178" r="5" fill="white"/>
<path d="M148.176 32V9.6H153.04L160.176 23.808L167.216 9.6H172.08V32H167.984V16.544L161.744 28.8H158.512L152.272 16.544V32H148.176ZM181.802 32.384C180.437 32.384 179.317 32.1707 178.442 31.744C177.567 31.296 176.917 30.7093 176.49 29.984C176.063 29.2587 175.85 28.4587 175.85 27.584C175.85 26.112 176.426 24.9173 177.578 24C178.73 23.0827 180.458 22.624 182.762 22.624H186.794V22.24C186.794 21.152 186.485 20.352 185.866 19.84C185.247 19.328 184.479 19.072 183.562 19.072C182.73 19.072 182.005 19.2747 181.386 19.68C180.767 20.064 180.383 20.64 180.234 21.408H176.234C176.341 20.256 176.725 19.2533 177.386 18.4C178.069 17.5467 178.943 16.896 180.01 16.448C181.077 15.9787 182.271 15.744 183.594 15.744C185.855 15.744 187.637 16.3093 188.938 17.44C190.239 18.5707 190.89 20.1707 190.89 22.24V32H187.402L187.018 29.44C186.549 30.2933 185.887 30.9973 185.034 31.552C184.202 32.1067 183.125 32.384 181.802 32.384ZM182.73 29.184C183.903 29.184 184.81 28.8 185.45 28.032C186.111 27.264 186.527 26.3147 186.698 25.184H183.21C182.122 25.184 181.343 25.3867 180.874 25.792C180.405 26.176 180.17 26.656 180.17 27.232C180.17 27.8507 180.405 28.3307 180.874 28.672C181.343 29.0133 181.962 29.184 182.73 29.184ZM194.799 32V16.128H198.447L198.831 19.104C199.407 18.08 200.185 17.2693 201.167 16.672C202.169 16.0533 203.343 15.744 204.687 15.744V20.064H203.535C202.639 20.064 201.839 20.2027 201.135 20.48C200.431 20.7573 199.876 21.2373 199.471 21.92C199.087 22.6027 198.895 23.552 198.895 24.768V32H194.799ZM207.486 32V8.96H211.582V22.56L217.214 16.128H222.078L215.582 23.36L223.134 32H218.014L211.582 24.032V32H207.486ZM232.073 32.384C230.473 32.384 229.055 32.0427 227.817 31.36C226.58 30.6773 225.609 29.7173 224.905 28.48C224.201 27.2427 223.849 25.8133 223.849 24.192C223.849 22.5493 224.191 21.088 224.873 19.808C225.577 18.528 226.537 17.536 227.753 16.832C228.991 16.1067 230.441 15.744 232.105 15.744C233.663 15.744 235.039 16.0853 236.233 16.768C237.428 17.4507 238.356 18.3893 239.017 19.584C239.7 20.7573 240.041 22.0693 240.041 23.52C240.041 23.7547 240.031 24 240.009 24.256C240.009 24.512 239.999 24.7787 239.977 25.056H227.913C227.999 26.2933 228.425 27.264 229.193 27.968C229.983 28.672 230.932 29.024 232.041 29.024C232.873 29.024 233.567 28.8427 234.121 28.48C234.697 28.096 235.124 27.6053 235.401 27.008H239.561C239.263 28.0107 238.761 28.928 238.057 29.76C237.375 30.5707 236.521 31.2107 235.497 31.68C234.495 32.1493 233.353 32.384 232.073 32.384ZM232.105 19.072C231.103 19.072 230.217 19.36 229.449 19.936C228.681 20.4907 228.191 21.344 227.977 22.496H235.881C235.817 21.4507 235.433 20.6187 234.729 20C234.025 19.3813 233.151 19.072 232.105 19.072ZM250.277 32C248.613 32 247.28 31.5947 246.277 30.784C245.274 29.9733 244.773 28.5333 244.773 26.464V19.552H242.053V16.128H244.773L245.253 11.872H248.869V16.128H253.157V19.552H248.869V26.496C248.869 27.264 249.029 27.7973 249.349 28.096C249.69 28.3733 250.266 28.512 251.077 28.512H253.061V32H250.277ZM258.882 13.664C258.135 13.664 257.516 13.44 257.026 12.992C256.556 12.544 256.322 11.9787 256.322 11.296C256.322 10.6133 256.556 10.0587 257.026 9.632C257.516 9.184 258.135 8.96 258.882 8.96C259.628 8.96 260.236 9.184 260.706 9.632C261.196 10.0587 261.442 10.6133 261.442 11.296C261.442 11.9787 261.196 12.544 260.706 12.992C260.236 13.44 259.628 13.664 258.882 13.664ZM256.834 32V16.128H260.93V32H256.834ZM265.205 32V16.128H268.821L269.141 18.816C269.632 17.8773 270.336 17.1307 271.253 16.576C272.192 16.0213 273.29 15.744 274.549 15.744C276.512 15.744 278.037 16.3627 279.125 17.6C280.213 18.8373 280.757 20.6507 280.757 23.04V32H276.661V23.424C276.661 22.0587 276.384 21.0133 275.829 20.288C275.274 19.5627 274.41 19.2 273.237 19.2C272.085 19.2 271.136 19.6053 270.389 20.416C269.664 21.2267 269.301 22.3573 269.301 23.808V32H265.205ZM291.394 27.264C290.626 27.264 289.911 27.1787 289.25 27.008L288.066 28.192C288.428 28.384 288.919 28.544 289.538 28.672C290.156 28.8 291.159 28.928 292.546 29.056C294.658 29.248 296.194 29.7493 297.154 30.56C298.114 31.3707 298.594 32.4907 298.594 33.92C298.594 34.8587 298.338 35.744 297.826 36.576C297.314 37.4293 296.524 38.112 295.458 38.624C294.391 39.1573 293.026 39.424 291.362 39.424C289.1 39.424 287.276 38.9973 285.89 38.144C284.503 37.312 283.81 36.0533 283.81 34.368C283.81 32.9387 284.503 31.7013 285.89 30.656C285.463 30.464 285.09 30.2613 284.77 30.048C284.471 29.8347 284.204 29.6107 283.97 29.376V28.64L286.754 25.696C285.516 24.608 284.898 23.2107 284.898 21.504C284.898 20.4373 285.154 19.4667 285.666 18.592C286.199 17.7173 286.946 17.024 287.906 16.512C288.866 16 290.028 15.744 291.394 15.744C292.29 15.744 293.122 15.872 293.89 16.128H299.906V18.624L297.186 18.816C297.612 19.6267 297.826 20.5227 297.826 21.504C297.826 22.5707 297.57 23.5413 297.058 24.416C296.546 25.2907 295.799 25.984 294.818 26.496C293.858 27.008 292.716 27.264 291.394 27.264ZM291.394 24.128C292.226 24.128 292.908 23.904 293.442 23.456C293.996 23.008 294.274 22.368 294.274 21.536C294.274 20.704 293.996 20.064 293.442 19.616C292.908 19.168 292.226 18.944 291.394 18.944C290.519 18.944 289.815 19.168 289.282 19.616C288.748 20.064 288.482 20.704 288.482 21.536C288.482 22.368 288.748 23.008 289.282 23.456C289.815 23.904 290.519 24.128 291.394 24.128ZM287.554 33.952C287.554 34.7413 287.916 35.328 288.642 35.712C289.388 36.1173 290.295 36.32 291.362 36.32C292.386 36.32 293.218 36.1067 293.858 35.68C294.498 35.2747 294.818 34.72 294.818 34.016C294.818 33.44 294.604 32.96 294.178 32.576C293.772 32.192 292.951 31.9573 291.714 31.872C290.839 31.808 290.028 31.712 289.282 31.584C288.663 31.9253 288.215 32.2987 287.938 32.704C287.682 33.1093 287.554 33.5253 287.554 33.952ZM309.174 32L317.366 9.6H321.974L330.166 32H325.814L324.022 26.816H315.286L313.462 32H309.174ZM316.406 23.616H322.902L319.638 14.304L316.406 23.616ZM338.595 32.384C336.611 32.384 335.075 31.7653 333.987 30.528C332.92 29.2907 332.387 27.4773 332.387 25.088V16.128H336.451V24.704C336.451 26.0693 336.728 27.1147 337.283 27.84C337.837 28.5653 338.712 28.928 339.907 28.928C341.037 28.928 341.965 28.5227 342.691 27.712C343.437 26.9013 343.811 25.7707 343.811 24.32V16.128H347.907V32H344.291L343.971 29.312C343.48 30.2507 342.765 30.9973 341.827 31.552C340.909 32.1067 339.832 32.384 338.595 32.384ZM359.183 32C357.519 32 356.186 31.5947 355.183 30.784C354.181 29.9733 353.679 28.5333 353.679 26.464V19.552H350.959V16.128H353.679L354.159 11.872H357.775V16.128H362.063V19.552H357.775V26.496C357.775 27.264 357.935 27.7973 358.255 28.096C358.597 28.3733 359.173 28.512 359.983 28.512H361.967V32H359.183ZM372.79 32.384C371.254 32.384 369.867 32.032 368.63 31.328C367.414 30.624 366.443 29.6533 365.718 28.416C365.014 27.1573 364.662 25.7067 364.662 24.064C364.662 22.4213 365.024 20.9813 365.75 19.744C366.475 18.4853 367.446 17.504 368.662 16.8C369.899 16.096 371.286 15.744 372.822 15.744C374.336 15.744 375.702 16.096 376.918 16.8C378.155 17.504 379.126 18.4853 379.83 19.744C380.555 20.9813 380.918 22.4213 380.918 24.064C380.918 25.7067 380.555 27.1573 379.83 28.416C379.126 29.6533 378.155 30.624 376.918 31.328C375.68 32.032 374.304 32.384 372.79 32.384ZM372.79 28.832C373.856 28.832 374.784 28.4373 375.574 27.648C376.363 26.8373 376.758 25.6427 376.758 24.064C376.758 22.4853 376.363 21.3013 375.574 20.512C374.784 19.7013 373.867 19.296 372.822 19.296C371.734 19.296 370.795 19.7013 370.006 20.512C369.238 21.3013 368.854 22.4853 368.854 24.064C368.854 25.6427 369.238 26.8373 370.006 27.648C370.795 28.4373 371.723 28.832 372.79 28.832ZM384.58 32V16.128H388.196L388.548 18.272C389.06 17.504 389.732 16.896 390.564 16.448C391.417 15.9787 392.399 15.744 393.508 15.744C395.961 15.744 397.7 16.6933 398.724 18.592C399.3 17.7173 400.068 17.024 401.028 16.512C402.009 16 403.076 15.744 404.228 15.744C406.297 15.744 407.887 16.3627 408.996 17.6C410.105 18.8373 410.66 20.6507 410.66 23.04V32H406.564V23.424C406.564 22.0587 406.297 21.0133 405.764 20.288C405.252 19.5627 404.452 19.2 403.364 19.2C402.255 19.2 401.359 19.6053 400.676 20.416C400.015 21.2267 399.684 22.3573 399.684 23.808V32H395.588V23.424C395.588 22.0587 395.321 21.0133 394.788 20.288C394.255 19.5627 393.433 19.2 392.324 19.2C391.236 19.2 390.351 19.6053 389.668 20.416C389.007 21.2267 388.676 22.3573 388.676 23.808V32H384.58ZM420.021 32.384C418.655 32.384 417.535 32.1707 416.661 31.744C415.786 31.296 415.135 30.7093 414.709 29.984C414.282 29.2587 414.069 28.4587 414.069 27.584C414.069 26.112 414.645 24.9173 415.797 24C416.949 23.0827 418.677 22.624 420.981 22.624H425.013V22.24C425.013 21.152 424.703 20.352 424.085 19.84C423.466 19.328 422.698 19.072 421.781 19.072C420.949 19.072 420.223 19.2747 419.605 19.68C418.986 20.064 418.602 20.64 418.453 21.408H414.453C414.559 20.256 414.943 19.2533 415.605 18.4C416.287 17.5467 417.162 16.896 418.229 16.448C419.295 15.9787 420.49 15.744 421.813 15.744C424.074 15.744 425.855 16.3093 427.157 17.44C428.458 18.5707 429.109 20.1707 429.109 22.24V32H425.621L425.237 29.44C424.767 30.2933 424.106 30.9973 423.253 31.552C422.421 32.1067 421.343 32.384 420.021 32.384ZM420.949 29.184C422.122 29.184 423.029 28.8 423.669 28.032C424.33 27.264 424.746 26.3147 424.917 25.184H421.429C420.341 25.184 419.562 25.3867 419.093 25.792C418.623 26.176 418.389 26.656 418.389 27.232C418.389 27.8507 418.623 28.3307 419.093 28.672C419.562 29.0133 420.181 29.184 420.949 29.184ZM439.871 32C438.207 32 436.873 31.5947 435.871 30.784C434.868 29.9733 434.367 28.5333 434.367 26.464V19.552H431.647V16.128H434.367L434.847 11.872H438.463V16.128H442.751V19.552H438.463V26.496C438.463 27.264 438.623 27.7973 438.943 28.096C439.284 28.3733 439.86 28.512 440.671 28.512H442.655V32H439.871ZM448.476 13.664C447.729 13.664 447.11 13.44 446.62 12.992C446.15 12.544 445.916 11.9787 445.916 11.296C445.916 10.6133 446.15 10.0587 446.62 9.632C447.11 9.184 447.729 8.96 448.476 8.96C449.222 8.96 449.83 9.184 450.3 9.632C450.79 10.0587 451.036 10.6133 451.036 11.296C451.036 11.9787 450.79 12.544 450.3 12.992C449.83 13.44 449.222 13.664 448.476 13.664ZM446.428 32V16.128H450.524V32H446.428ZM462.415 32.384C460.879 32.384 459.492 32.032 458.255 31.328C457.039 30.624 456.068 29.6533 455.343 28.416C454.639 27.1573 454.287 25.7067 454.287 24.064C454.287 22.4213 454.649 20.9813 455.375 19.744C456.1 18.4853 457.071 17.504 458.287 16.8C459.524 16.096 460.911 15.744 462.447 15.744C463.961 15.744 465.327 16.096 466.543 16.8C467.78 17.504 468.751 18.4853 469.455 19.744C470.18 20.9813 470.543 22.4213 470.543 24.064C470.543 25.7067 470.18 27.1573 469.455 28.416C468.751 29.6533 467.78 30.624 466.543 31.328C465.305 32.032 463.929 32.384 462.415 32.384ZM462.415 28.832C463.481 28.832 464.409 28.4373 465.199 27.648C465.988 26.8373 466.383 25.6427 466.383 24.064C466.383 22.4853 465.988 21.3013 465.199 20.512C464.409 19.7013 463.492 19.296 462.447 19.296C461.359 19.296 460.42 19.7013 459.631 20.512C458.863 21.3013 458.479 22.4853 458.479 24.064C458.479 25.6427 458.863 26.8373 459.631 27.648C460.42 28.4373 461.348 28.832 462.415 28.832ZM474.205 32V16.128H477.821L478.141 18.816C478.632 17.8773 479.336 17.1307 480.253 16.576C481.192 16.0213 482.29 15.744 483.549 15.744C485.512 15.744 487.037 16.3627 488.125 17.6C489.213 18.8373 489.757 20.6507 489.757 23.04V32H485.661V23.424C485.661 22.0587 485.384 21.0133 484.829 20.288C484.274 19.5627 483.41 19.2 482.237 19.2C481.085 19.2 480.136 19.6053 479.389 20.416C478.664 21.2267 478.301 22.3573 478.301 23.808V32H474.205Z" fill="white"/>
<path d="M25.3068 94.24C24.4135 94.24 23.6068 94.08 22.8868 93.76C22.1668 93.4267 21.5868 92.9333 21.1468 92.28C20.7201 91.6267 20.4935 90.8133 20.4668 89.84H22.1668C22.1801 90.64 22.4601 91.3333 23.0068 91.92C23.5535 92.4933 24.3201 92.78 25.3068 92.78C26.2935 92.78 27.0335 92.5067 27.5268 91.96C28.0335 91.4133 28.2868 90.7533 28.2868 89.98C28.2868 89.3267 28.1268 88.7933 27.8068 88.38C27.5001 87.9667 27.0801 87.66 26.5468 87.46C26.0268 87.26 25.4535 87.16 24.8268 87.16H23.7868V85.74H24.8268C25.7335 85.74 26.4401 85.5333 26.9468 85.12C27.4668 84.7067 27.7268 84.1267 27.7268 83.38C27.7268 82.7533 27.5201 82.24 27.1068 81.84C26.7068 81.4267 26.1068 81.22 25.3068 81.22C24.5335 81.22 23.9135 81.4533 23.4468 81.92C22.9801 82.3733 22.7201 82.9467 22.6668 83.64H20.9668C21.0068 82.88 21.2068 82.2067 21.5668 81.62C21.9401 81.0333 22.4468 80.58 23.0868 80.26C23.7268 79.9267 24.4668 79.76 25.3068 79.76C26.2135 79.76 26.9668 79.92 27.5668 80.24C28.1801 80.56 28.6401 80.9867 28.9468 81.52C29.2668 82.0533 29.4268 82.64 29.4268 83.28C29.4268 83.9867 29.2335 84.6333 28.8468 85.22C28.4601 85.7933 27.8801 86.18 27.1068 86.38C27.9335 86.5533 28.6201 86.9467 29.1668 87.56C29.7135 88.1733 29.9868 88.98 29.9868 89.98C29.9868 90.7533 29.8068 91.4667 29.4468 92.12C29.1001 92.76 28.5801 93.2733 27.8868 93.66C27.1935 94.0467 26.3335 94.24 25.3068 94.24ZM37.7446 94.24C36.7313 94.24 35.8779 94.0533 35.1846 93.68C34.4913 93.2933 33.9313 92.78 33.5046 92.14C33.0913 91.5 32.7846 90.7867 32.5846 90C32.3979 89.2 32.3046 88.3867 32.3046 87.56C32.3046 86.0133 32.5179 84.66 32.9446 83.5C33.3713 82.3267 33.9846 81.4133 34.7846 80.76C35.5979 80.0933 36.5779 79.76 37.7246 79.76C38.6046 79.76 39.3579 79.9333 39.9846 80.28C40.6113 80.6267 41.1046 81.0933 41.4646 81.68C41.8379 82.2533 42.0713 82.8933 42.1646 83.6H40.6046C40.4579 82.84 40.1313 82.2533 39.6246 81.84C39.1179 81.4267 38.4779 81.22 37.7046 81.22C36.6513 81.22 35.7646 81.72 35.0446 82.72C34.3379 83.7067 33.9579 85.2533 33.9046 87.36C34.2246 86.7333 34.7313 86.1933 35.4246 85.74C36.1313 85.2733 36.9779 85.04 37.9646 85.04C38.7646 85.04 39.5113 85.2267 40.2046 85.6C40.9113 85.9733 41.4846 86.5 41.9246 87.18C42.3646 87.8467 42.5846 88.6333 42.5846 89.54C42.5846 90.3267 42.3913 91.08 42.0046 91.8C41.6179 92.52 41.0579 93.1067 40.3246 93.56C39.6046 94.0133 38.7446 94.24 37.7446 94.24ZM37.6246 92.76C38.2513 92.76 38.8113 92.6267 39.3046 92.36C39.7979 92.0933 40.1846 91.7267 40.4646 91.26C40.7446 90.78 40.8846 90.2333 40.8846 89.62C40.8846 88.6733 40.5713 87.92 39.9446 87.36C39.3313 86.7867 38.5579 86.5 37.6246 86.5C36.9979 86.5 36.4379 86.6467 35.9446 86.94C35.4513 87.22 35.0579 87.6 34.7646 88.08C34.4846 88.56 34.3446 89.08 34.3446 89.64C34.3446 90.24 34.4846 90.78 34.7646 91.26C35.0579 91.7267 35.4513 92.0933 35.9446 92.36C36.4379 92.6267 36.9979 92.76 37.6246 92.76ZM50.7623 94.24C49.5223 94.24 48.4489 93.94 47.5423 93.34C46.6489 92.7267 45.9623 91.88 45.4823 90.8C45.0023 89.7067 44.7623 88.44 44.7623 87C44.7623 85.56 45.0023 84.3 45.4823 83.22C45.9623 82.1267 46.6489 81.28 47.5423 80.68C48.4489 80.0667 49.5223 79.76 50.7623 79.76C52.0023 79.76 53.0689 80.0667 53.9623 80.68C54.8556 81.28 55.5423 82.1267 56.0223 83.22C56.5023 84.3 56.7423 85.56 56.7423 87C56.7423 88.44 56.5023 89.7067 56.0223 90.8C55.5423 91.88 54.8556 92.7267 53.9623 93.34C53.0689 93.94 52.0023 94.24 50.7623 94.24ZM50.7623 92.76C51.5756 92.76 52.3023 92.5333 52.9423 92.08C53.5956 91.6133 54.1023 90.9533 54.4623 90.1C54.8356 89.2333 55.0223 88.2 55.0223 87C55.0223 85.8 54.8356 84.7733 54.4623 83.92C54.1023 83.0667 53.5956 82.4133 52.9423 81.96C52.3023 81.4933 51.5756 81.26 50.7623 81.26C49.9356 81.26 49.2023 81.4933 48.5623 81.96C47.9223 82.4133 47.4156 83.0667 47.0423 83.92C46.6689 84.7733 46.4823 85.8 46.4823 87C46.4823 88.2 46.6689 89.2333 47.0423 90.1C47.4156 90.9533 47.9223 91.6133 48.5623 92.08C49.2023 92.5333 49.9356 92.76 50.7623 92.76ZM68.8624 94.24C67.8758 94.24 67.0091 94.0133 66.2624 93.56C65.5291 93.1067 64.9558 92.4867 64.5424 91.7C64.1424 90.9133 63.9424 90.02 63.9424 89.02C63.9424 88.02 64.1491 87.1333 64.5624 86.36C64.9758 85.5733 65.5491 84.96 66.2824 84.52C67.0158 84.0667 67.8824 83.84 68.8824 83.84C69.6958 83.84 70.4158 84.0067 71.0424 84.34C71.6691 84.6733 72.1558 85.14 72.5024 85.74V79.6H74.1824V94H72.6624L72.5024 92.36C72.1824 92.84 71.7224 93.2733 71.1224 93.66C70.5224 94.0467 69.7691 94.24 68.8624 94.24ZM69.0424 92.78C69.7091 92.78 70.2958 92.6267 70.8024 92.32C71.3224 92 71.7224 91.56 72.0024 91C72.2958 90.44 72.4424 89.7867 72.4424 89.04C72.4424 88.2933 72.2958 87.64 72.0024 87.08C71.7224 86.52 71.3224 86.0867 70.8024 85.78C70.2958 85.46 69.7091 85.3 69.0424 85.3C68.3891 85.3 67.8024 85.46 67.2824 85.78C66.7758 86.0867 66.3758 86.52 66.0824 87.08C65.8024 87.64 65.6624 88.2933 65.6624 89.04C65.6624 89.7867 65.8024 90.44 66.0824 91C66.3758 91.56 66.7758 92 67.2824 92.32C67.8024 92.6267 68.3891 92.78 69.0424 92.78ZM81.381 94.24C80.4343 94.24 79.5943 94.0267 78.861 93.6C78.1277 93.16 77.5477 92.5533 77.121 91.78C76.7077 91.0067 76.501 90.0933 76.501 89.04C76.501 88 76.7077 87.0933 77.121 86.32C77.5343 85.5333 78.1077 84.9267 78.841 84.5C79.5877 84.06 80.4477 83.84 81.421 83.84C82.381 83.84 83.2077 84.06 83.901 84.5C84.6077 84.9267 85.1477 85.4933 85.521 86.2C85.8943 86.9067 86.081 87.6667 86.081 88.48C86.081 88.6267 86.0743 88.7733 86.061 88.92C86.061 89.0667 86.061 89.2333 86.061 89.42H78.161C78.201 90.18 78.3743 90.8133 78.681 91.32C79.001 91.8133 79.3943 92.1867 79.861 92.44C80.341 92.6933 80.8477 92.82 81.381 92.82C82.0743 92.82 82.6543 92.66 83.121 92.34C83.5877 92.02 83.9277 91.5867 84.141 91.04H85.801C85.5343 91.96 85.021 92.7267 84.261 93.34C83.5143 93.94 82.5543 94.24 81.381 94.24ZM81.381 85.26C80.581 85.26 79.8677 85.5067 79.241 86C78.6277 86.48 78.2743 87.1867 78.181 88.12H84.421C84.381 87.2267 84.0743 86.5267 83.501 86.02C82.9277 85.5133 82.221 85.26 81.381 85.26ZM92.1691 90.88C91.6091 90.88 91.0958 90.8067 90.6291 90.66L89.6291 91.6C89.7758 91.7067 89.9558 91.8 90.1691 91.88C90.3958 91.9467 90.7158 92.0133 91.1291 92.08C91.5425 92.1333 92.1225 92.1933 92.8691 92.26C94.2025 92.3533 95.1558 92.66 95.7291 93.18C96.3025 93.7 96.5891 94.38 96.5891 95.22C96.5891 95.7933 96.4291 96.34 96.1091 96.86C95.8025 97.38 95.3225 97.8067 94.6691 98.14C94.0291 98.4733 93.2025 98.64 92.1891 98.64C91.2958 98.64 90.5025 98.52 89.8091 98.28C89.1158 98.0533 88.5758 97.7 88.1891 97.22C87.8025 96.7533 87.6091 96.16 87.6091 95.44C87.6091 95.0667 87.7091 94.66 87.9091 94.22C88.1091 93.7933 88.4825 93.3867 89.0291 93C88.7358 92.88 88.4825 92.7533 88.2691 92.62C88.0691 92.4733 87.8825 92.3133 87.7091 92.14V91.68L89.4091 90C88.6225 89.3333 88.2291 88.4533 88.2291 87.36C88.2291 86.7067 88.3825 86.1133 88.6891 85.58C88.9958 85.0467 89.4425 84.6267 90.0291 84.32C90.6158 84 91.3291 83.84 92.1691 83.84C92.7425 83.84 93.2625 83.92 93.7291 84.08H97.3891V85.34L95.5291 85.42C95.9158 85.98 96.1091 86.6267 96.1091 87.36C96.1091 88.0133 95.9491 88.6067 95.6291 89.14C95.3225 89.6733 94.8758 90.1 94.2891 90.42C93.7158 90.7267 93.0091 90.88 92.1691 90.88ZM92.1691 89.5C92.8758 89.5 93.4358 89.32 93.8491 88.96C94.2758 88.5867 94.4891 88.0533 94.4891 87.36C94.4891 86.68 94.2758 86.16 93.8491 85.8C93.4358 85.4267 92.8758 85.24 92.1691 85.24C91.4491 85.24 90.8758 85.4267 90.4491 85.8C90.0358 86.16 89.8291 86.68 89.8291 87.36C89.8291 88.0533 90.0358 88.5867 90.4491 88.96C90.8758 89.32 91.4491 89.5 92.1691 89.5ZM89.2491 95.28C89.2491 95.9467 89.5291 96.44 90.0891 96.76C90.6491 97.0933 91.3491 97.26 92.1891 97.26C93.0158 97.26 93.6758 97.08 94.1691 96.72C94.6758 96.36 94.9291 95.88 94.9291 95.28C94.9291 94.8533 94.7558 94.48 94.4091 94.16C94.0625 93.8533 93.4225 93.6733 92.4891 93.62C91.7558 93.5667 91.1225 93.5 90.5891 93.42C90.0425 93.7133 89.6825 94.0267 89.5091 94.36C89.3358 94.7067 89.2491 95.0133 89.2491 95.28ZM99.2843 94V84.08H100.804L100.944 85.98C101.251 85.3267 101.718 84.8067 102.344 84.42C102.971 84.0333 103.744 83.84 104.664 83.84V85.6H104.204C103.618 85.6 103.078 85.7067 102.584 85.92C102.091 86.12 101.698 86.4667 101.404 86.96C101.111 87.4533 100.964 88.1333 100.964 89V94H99.2843ZM110.639 94.24C109.692 94.24 108.852 94.0267 108.119 93.6C107.385 93.16 106.805 92.5533 106.379 91.78C105.965 91.0067 105.759 90.0933 105.759 89.04C105.759 88 105.965 87.0933 106.379 86.32C106.792 85.5333 107.365 84.9267 108.099 84.5C108.845 84.06 109.705 83.84 110.679 83.84C111.639 83.84 112.465 84.06 113.159 84.5C113.865 84.9267 114.405 85.4933 114.779 86.2C115.152 86.9067 115.339 87.6667 115.339 88.48C115.339 88.6267 115.332 88.7733 115.319 88.92C115.319 89.0667 115.319 89.2333 115.319 89.42H107.419C107.459 90.18 107.632 90.8133 107.939 91.32C108.259 91.8133 108.652 92.1867 109.119 92.44C109.599 92.6933 110.105 92.82 110.639 92.82C111.332 92.82 111.912 92.66 112.379 92.34C112.845 92.02 113.185 91.5867 113.399 91.04H115.059C114.792 91.96 114.279 92.7267 113.519 93.34C112.772 93.94 111.812 94.24 110.639 94.24ZM110.639 85.26C109.839 85.26 109.125 85.5067 108.499 86C107.885 86.48 107.532 87.1867 107.439 88.12H113.679C113.639 87.2267 113.332 86.5267 112.759 86.02C112.185 85.5133 111.479 85.26 110.639 85.26ZM122.026 94.24C121.079 94.24 120.239 94.0267 119.506 93.6C118.772 93.16 118.192 92.5533 117.766 91.78C117.352 91.0067 117.146 90.0933 117.146 89.04C117.146 88 117.352 87.0933 117.766 86.32C118.179 85.5333 118.752 84.9267 119.486 84.5C120.232 84.06 121.092 83.84 122.066 83.84C123.026 83.84 123.852 84.06 124.546 84.5C125.252 84.9267 125.792 85.4933 126.166 86.2C126.539 86.9067 126.726 87.6667 126.726 88.48C126.726 88.6267 126.719 88.7733 126.706 88.92C126.706 89.0667 126.706 89.2333 126.706 89.42H118.806C118.846 90.18 119.019 90.8133 119.326 91.32C119.646 91.8133 120.039 92.1867 120.506 92.44C120.986 92.6933 121.492 92.82 122.026 92.82C122.719 92.82 123.299 92.66 123.766 92.34C124.232 92.02 124.572 91.5867 124.786 91.04H126.446C126.179 91.96 125.666 92.7267 124.906 93.34C124.159 93.94 123.199 94.24 122.026 94.24ZM122.026 85.26C121.226 85.26 120.512 85.5067 119.886 86C119.272 86.48 118.919 87.1867 118.826 88.12H125.066C125.026 87.2267 124.719 86.5267 124.146 86.02C123.572 85.5133 122.866 85.26 122.026 85.26ZM134.245 94V84.08H135.765L135.885 85.52C136.205 84.9867 136.632 84.5733 137.165 84.28C137.699 83.9867 138.299 83.84 138.965 83.84C139.752 83.84 140.425 84 140.985 84.32C141.559 84.64 141.999 85.1267 142.305 85.78C142.652 85.18 143.125 84.7067 143.725 84.36C144.339 84.0133 144.999 83.84 145.705 83.84C146.892 83.84 147.839 84.2 148.545 84.92C149.252 85.6267 149.605 86.72 149.605 88.2V94H147.945V88.38C147.945 87.3533 147.739 86.58 147.325 86.06C146.912 85.54 146.319 85.28 145.545 85.28C144.745 85.28 144.079 85.5933 143.545 86.22C143.025 86.8333 142.765 87.7133 142.765 88.86V94H141.085V88.38C141.085 87.3533 140.879 86.58 140.465 86.06C140.052 85.54 139.459 85.28 138.685 85.28C137.899 85.28 137.239 85.5933 136.705 86.22C136.185 86.8333 135.925 87.7133 135.925 88.86V94H134.245ZM156.596 94.24C155.649 94.24 154.809 94.0267 154.076 93.6C153.343 93.16 152.763 92.5533 152.336 91.78C151.923 91.0067 151.716 90.0933 151.716 89.04C151.716 88 151.923 87.0933 152.336 86.32C152.749 85.5333 153.323 84.9267 154.056 84.5C154.803 84.06 155.663 83.84 156.636 83.84C157.596 83.84 158.423 84.06 159.116 84.5C159.823 84.9267 160.363 85.4933 160.736 86.2C161.109 86.9067 161.296 87.6667 161.296 88.48C161.296 88.6267 161.289 88.7733 161.276 88.92C161.276 89.0667 161.276 89.2333 161.276 89.42H153.376C153.416 90.18 153.589 90.8133 153.896 91.32C154.216 91.8133 154.609 92.1867 155.076 92.44C155.556 92.6933 156.063 92.82 156.596 92.82C157.289 92.82 157.869 92.66 158.336 92.34C158.803 92.02 159.143 91.5867 159.356 91.04H161.016C160.749 91.96 160.236 92.7267 159.476 93.34C158.729 93.94 157.769 94.24 156.596 94.24ZM156.596 85.26C155.796 85.26 155.083 85.5067 154.456 86C153.843 86.48 153.489 87.1867 153.396 88.12H159.636C159.596 87.2267 159.289 86.5267 158.716 86.02C158.143 85.5133 157.436 85.26 156.596 85.26ZM167.323 94.24C166.136 94.24 165.149 93.94 164.363 93.34C163.576 92.74 163.116 91.9267 162.983 90.9H164.703C164.809 91.42 165.083 91.8733 165.523 92.26C165.976 92.6333 166.583 92.82 167.343 92.82C168.049 92.82 168.569 92.6733 168.903 92.38C169.236 92.0733 169.403 91.7133 169.403 91.3C169.403 90.7 169.183 90.3 168.743 90.1C168.316 89.9 167.709 89.72 166.923 89.56C166.389 89.4533 165.856 89.3 165.323 89.1C164.789 88.9 164.343 88.62 163.983 88.26C163.623 87.8867 163.443 87.4 163.443 86.8C163.443 85.9333 163.763 85.2267 164.403 84.68C165.056 84.12 165.936 83.84 167.043 83.84C168.096 83.84 168.956 84.1067 169.623 84.64C170.303 85.16 170.696 85.9067 170.803 86.88H169.143C169.076 86.3733 168.856 85.98 168.483 85.7C168.123 85.4067 167.636 85.26 167.023 85.26C166.423 85.26 165.956 85.3867 165.623 85.64C165.303 85.8933 165.143 86.2267 165.143 86.64C165.143 87.04 165.349 87.3533 165.763 87.58C166.189 87.8067 166.763 88 167.483 88.16C168.096 88.2933 168.676 88.46 169.223 88.66C169.783 88.8467 170.236 89.1333 170.583 89.52C170.943 89.8933 171.123 90.44 171.123 91.16C171.136 92.0533 170.796 92.7933 170.103 93.38C169.423 93.9533 168.496 94.24 167.323 94.24ZM177.323 94.24C176.136 94.24 175.149 93.94 174.363 93.34C173.576 92.74 173.116 91.9267 172.983 90.9H174.703C174.809 91.42 175.083 91.8733 175.523 92.26C175.976 92.6333 176.583 92.82 177.343 92.82C178.049 92.82 178.569 92.6733 178.903 92.38C179.236 92.0733 179.403 91.7133 179.403 91.3C179.403 90.7 179.183 90.3 178.743 90.1C178.316 89.9 177.709 89.72 176.923 89.56C176.389 89.4533 175.856 89.3 175.323 89.1C174.789 88.9 174.343 88.62 173.983 88.26C173.623 87.8867 173.443 87.4 173.443 86.8C173.443 85.9333 173.763 85.2267 174.403 84.68C175.056 84.12 175.936 83.84 177.043 83.84C178.096 83.84 178.956 84.1067 179.623 84.64C180.303 85.16 180.696 85.9067 180.803 86.88H179.143C179.076 86.3733 178.856 85.98 178.483 85.7C178.123 85.4067 177.636 85.26 177.023 85.26C176.423 85.26 175.956 85.3867 175.623 85.64C175.303 85.8933 175.143 86.2267 175.143 86.64C175.143 87.04 175.349 87.3533 175.763 87.58C176.189 87.8067 176.763 88 177.483 88.16C178.096 88.2933 178.676 88.46 179.223 88.66C179.783 88.8467 180.236 89.1333 180.583 89.52C180.943 89.8933 181.123 90.44 181.123 91.16C181.136 92.0533 180.796 92.7933 180.103 93.38C179.423 93.9533 178.496 94.24 177.323 94.24ZM186.823 94.24C185.996 94.24 185.309 94.1 184.763 93.82C184.216 93.54 183.809 93.1667 183.543 92.7C183.276 92.2333 183.143 91.7267 183.143 91.18C183.143 90.1667 183.529 89.3867 184.303 88.84C185.076 88.2933 186.129 88.02 187.463 88.02H190.143V87.9C190.143 87.0333 189.916 86.38 189.463 85.94C189.009 85.4867 188.403 85.26 187.643 85.26C186.989 85.26 186.423 85.4267 185.943 85.76C185.476 86.08 185.183 86.5533 185.063 87.18H183.343C183.409 86.46 183.649 85.8533 184.063 85.36C184.489 84.8667 185.016 84.4933 185.643 84.24C186.269 83.9733 186.936 83.84 187.643 83.84C189.029 83.84 190.069 84.2133 190.763 84.96C191.469 85.6933 191.823 86.6733 191.823 87.9V94H190.323L190.223 92.22C189.943 92.78 189.529 93.26 188.983 93.66C188.449 94.0467 187.729 94.24 186.823 94.24ZM187.083 92.82C187.723 92.82 188.269 92.6533 188.723 92.32C189.189 91.9867 189.543 91.5533 189.783 91.02C190.023 90.4867 190.143 89.9267 190.143 89.34V89.32H187.603C186.616 89.32 185.916 89.4933 185.503 89.84C185.103 90.1733 184.903 90.5933 184.903 91.1C184.903 91.62 185.089 92.04 185.463 92.36C185.849 92.6667 186.389 92.82 187.083 92.82ZM198.263 90.88C197.703 90.88 197.19 90.8067 196.723 90.66L195.723 91.6C195.87 91.7067 196.05 91.8 196.263 91.88C196.49 91.9467 196.81 92.0133 197.223 92.08C197.636 92.1333 198.216 92.1933 198.963 92.26C200.296 92.3533 201.25 92.66 201.823 93.18C202.396 93.7 202.683 94.38 202.683 95.22C202.683 95.7933 202.523 96.34 202.203 96.86C201.896 97.38 201.416 97.8067 200.763 98.14C200.123 98.4733 199.296 98.64 198.283 98.64C197.39 98.64 196.596 98.52 195.903 98.28C195.21 98.0533 194.67 97.7 194.283 97.22C193.896 96.7533 193.703 96.16 193.703 95.44C193.703 95.0667 193.803 94.66 194.003 94.22C194.203 93.7933 194.576 93.3867 195.123 93C194.83 92.88 194.576 92.7533 194.363 92.62C194.163 92.4733 193.976 92.3133 193.803 92.14V91.68L195.503 90C194.716 89.3333 194.323 88.4533 194.323 87.36C194.323 86.7067 194.476 86.1133 194.783 85.58C195.09 85.0467 195.536 84.6267 196.123 84.32C196.71 84 197.423 83.84 198.263 83.84C198.836 83.84 199.356 83.92 199.823 84.08H203.483V85.34L201.623 85.42C202.01 85.98 202.203 86.6267 202.203 87.36C202.203 88.0133 202.043 88.6067 201.723 89.14C201.416 89.6733 200.97 90.1 200.383 90.42C199.81 90.7267 199.103 90.88 198.263 90.88ZM198.263 89.5C198.97 89.5 199.53 89.32 199.943 88.96C200.37 88.5867 200.583 88.0533 200.583 87.36C200.583 86.68 200.37 86.16 199.943 85.8C199.53 85.4267 198.97 85.24 198.263 85.24C197.543 85.24 196.97 85.4267 196.543 85.8C196.13 86.16 195.923 86.68 195.923 87.36C195.923 88.0533 196.13 88.5867 196.543 88.96C196.97 89.32 197.543 89.5 198.263 89.5ZM195.343 95.28C195.343 95.9467 195.623 96.44 196.183 96.76C196.743 97.0933 197.443 97.26 198.283 97.26C199.11 97.26 199.77 97.08 200.263 96.72C200.77 96.36 201.023 95.88 201.023 95.28C201.023 94.8533 200.85 94.48 200.503 94.16C200.156 93.8533 199.516 93.6733 198.583 93.62C197.85 93.5667 197.216 93.5 196.683 93.42C196.136 93.7133 195.776 94.0267 195.603 94.36C195.43 94.7067 195.343 95.0133 195.343 95.28ZM206.398 81.88C206.065 81.88 205.785 81.7733 205.558 81.56C205.345 81.3333 205.238 81.0533 205.238 80.72C205.238 80.4 205.345 80.1333 205.558 79.92C205.785 79.7067 206.065 79.6 206.398 79.6C206.718 79.6 206.991 79.7067 207.218 79.92C207.445 80.1333 207.558 80.4 207.558 80.72C207.558 81.0533 207.445 81.3333 207.218 81.56C206.991 81.7733 206.718 81.88 206.398 81.88ZM205.558 94V84.08H207.238V94H205.558ZM210.163 94V84.08H211.683L211.783 85.86C212.103 85.2333 212.563 84.74 213.163 84.38C213.763 84.02 214.443 83.84 215.203 83.84C216.377 83.84 217.31 84.2 218.003 84.92C218.71 85.6267 219.063 86.72 219.063 88.2V94H217.383V88.38C217.383 86.3133 216.53 85.28 214.823 85.28C213.97 85.28 213.257 85.5933 212.683 86.22C212.123 86.8333 211.843 87.7133 211.843 88.86V94H210.163ZM225.529 90.88C224.969 90.88 224.455 90.8067 223.989 90.66L222.989 91.6C223.135 91.7067 223.315 91.8 223.529 91.88C223.755 91.9467 224.075 92.0133 224.489 92.08C224.902 92.1333 225.482 92.1933 226.229 92.26C227.562 92.3533 228.515 92.66 229.089 93.18C229.662 93.7 229.949 94.38 229.949 95.22C229.949 95.7933 229.789 96.34 229.469 96.86C229.162 97.38 228.682 97.8067 228.029 98.14C227.389 98.4733 226.562 98.64 225.549 98.64C224.655 98.64 223.862 98.52 223.169 98.28C222.475 98.0533 221.935 97.7 221.549 97.22C221.162 96.7533 220.969 96.16 220.969 95.44C220.969 95.0667 221.069 94.66 221.269 94.22C221.469 93.7933 221.842 93.3867 222.389 93C222.095 92.88 221.842 92.7533 221.629 92.62C221.429 92.4733 221.242 92.3133 221.069 92.14V91.68L222.769 90C221.982 89.3333 221.589 88.4533 221.589 87.36C221.589 86.7067 221.742 86.1133 222.049 85.58C222.355 85.0467 222.802 84.6267 223.389 84.32C223.975 84 224.689 83.84 225.529 83.84C226.102 83.84 226.622 83.92 227.089 84.08H230.749V85.34L228.889 85.42C229.275 85.98 229.469 86.6267 229.469 87.36C229.469 88.0133 229.309 88.6067 228.989 89.14C228.682 89.6733 228.235 90.1 227.649 90.42C227.075 90.7267 226.369 90.88 225.529 90.88ZM225.529 89.5C226.235 89.5 226.795 89.32 227.209 88.96C227.635 88.5867 227.849 88.0533 227.849 87.36C227.849 86.68 227.635 86.16 227.209 85.8C226.795 85.4267 226.235 85.24 225.529 85.24C224.809 85.24 224.235 85.4267 223.809 85.8C223.395 86.16 223.189 86.68 223.189 87.36C223.189 88.0533 223.395 88.5867 223.809 88.96C224.235 89.32 224.809 89.5 225.529 89.5ZM222.609 95.28C222.609 95.9467 222.889 96.44 223.449 96.76C224.009 97.0933 224.709 97.26 225.549 97.26C226.375 97.26 227.035 97.08 227.529 96.72C228.035 96.36 228.289 95.88 228.289 95.28C228.289 94.8533 228.115 94.48 227.769 94.16C227.422 93.8533 226.782 93.6733 225.849 93.62C225.115 93.5667 224.482 93.5 223.949 93.42C223.402 93.7133 223.042 94.0267 222.869 94.36C222.695 94.7067 222.609 95.0133 222.609 95.28ZM241.237 94.24C240.41 94.24 239.723 94.1 239.177 93.82C238.63 93.54 238.223 93.1667 237.957 92.7C237.69 92.2333 237.557 91.7267 237.557 91.18C237.557 90.1667 237.943 89.3867 238.717 88.84C239.49 88.2933 240.543 88.02 241.877 88.02H244.557V87.9C244.557 87.0333 244.33 86.38 243.877 85.94C243.423 85.4867 242.817 85.26 242.057 85.26C241.403 85.26 240.837 85.4267 240.357 85.76C239.89 86.08 239.597 86.5533 239.477 87.18H237.757C237.823 86.46 238.063 85.8533 238.477 85.36C238.903 84.8667 239.43 84.4933 240.057 84.24C240.683 83.9733 241.35 83.84 242.057 83.84C243.443 83.84 244.483 84.2133 245.177 84.96C245.883 85.6933 246.237 86.6733 246.237 87.9V94H244.737L244.637 92.22C244.357 92.78 243.943 93.26 243.397 93.66C242.863 94.0467 242.143 94.24 241.237 94.24ZM241.497 92.82C242.137 92.82 242.683 92.6533 243.137 92.32C243.603 91.9867 243.957 91.5533 244.197 91.02C244.437 90.4867 244.557 89.9267 244.557 89.34V89.32H242.017C241.03 89.32 240.33 89.4933 239.917 89.84C239.517 90.1733 239.317 90.5933 239.317 91.1C239.317 91.62 239.503 92.04 239.877 92.36C240.263 92.6667 240.803 92.82 241.497 92.82ZM252.377 94.24C251.204 94.24 250.27 93.8867 249.577 93.18C248.884 92.46 248.537 91.36 248.537 89.88V84.08H250.217V89.7C250.217 91.7667 251.064 92.8 252.757 92.8C253.624 92.8 254.337 92.4933 254.897 91.88C255.47 91.2533 255.757 90.3667 255.757 89.22V84.08H257.437V94H255.917L255.797 92.22C255.49 92.8467 255.03 93.34 254.417 93.7C253.817 94.06 253.137 94.24 252.377 94.24ZM264.122 94C263.216 94 262.502 93.78 261.982 93.34C261.462 92.9 261.202 92.1067 261.202 90.96V85.5H259.482V84.08H261.202L261.422 81.7H262.882V84.08H265.802V85.5H262.882V90.96C262.882 91.5867 263.009 92.0133 263.262 92.24C263.516 92.4533 263.962 92.56 264.602 92.56H265.642V94H264.122ZM272.183 94.24C271.25 94.24 270.41 94.0267 269.663 93.6C268.917 93.1733 268.323 92.5733 267.883 91.8C267.457 91.0133 267.243 90.0933 267.243 89.04C267.243 87.9867 267.463 87.0733 267.903 86.3C268.343 85.5133 268.937 84.9067 269.683 84.48C270.443 84.0533 271.29 83.84 272.223 83.84C273.157 83.84 273.997 84.0533 274.743 84.48C275.49 84.9067 276.077 85.5133 276.503 86.3C276.943 87.0733 277.163 87.9867 277.163 89.04C277.163 90.0933 276.943 91.0133 276.503 91.8C276.063 92.5733 275.463 93.1733 274.703 93.6C273.957 94.0267 273.117 94.24 272.183 94.24ZM272.183 92.8C272.757 92.8 273.29 92.66 273.783 92.38C274.277 92.1 274.677 91.68 274.983 91.12C275.29 90.56 275.443 89.8667 275.443 89.04C275.443 88.2133 275.29 87.52 274.983 86.96C274.69 86.4 274.297 85.98 273.803 85.7C273.31 85.42 272.783 85.28 272.223 85.28C271.65 85.28 271.117 85.42 270.623 85.7C270.13 85.98 269.73 86.4 269.423 86.96C269.117 87.52 268.963 88.2133 268.963 89.04C268.963 89.8667 269.117 90.56 269.423 91.12C269.73 91.68 270.123 92.1 270.603 92.38C271.097 92.66 271.623 92.8 272.183 92.8ZM279.499 94V84.08H281.019L281.139 85.52C281.459 84.9867 281.886 84.5733 282.419 84.28C282.952 83.9867 283.552 83.84 284.219 83.84C285.006 83.84 285.679 84 286.239 84.32C286.812 84.64 287.252 85.1267 287.559 85.78C287.906 85.18 288.379 84.7067 288.979 84.36C289.592 84.0133 290.252 83.84 290.959 83.84C292.146 83.84 293.092 84.2 293.799 84.92C294.506 85.6267 294.859 86.72 294.859 88.2V94H293.199V88.38C293.199 87.3533 292.992 86.58 292.579 86.06C292.166 85.54 291.572 85.28 290.799 85.28C289.999 85.28 289.332 85.5933 288.799 86.22C288.279 86.8333 288.019 87.7133 288.019 88.86V94H286.339V88.38C286.339 87.3533 286.132 86.58 285.719 86.06C285.306 85.54 284.712 85.28 283.939 85.28C283.152 85.28 282.492 85.5933 281.959 86.22C281.439 86.8333 281.179 87.7133 281.179 88.86V94H279.499ZM300.69 94.24C299.863 94.24 299.176 94.1 298.63 93.82C298.083 93.54 297.676 93.1667 297.41 92.7C297.143 92.2333 297.01 91.7267 297.01 91.18C297.01 90.1667 297.396 89.3867 298.17 88.84C298.943 88.2933 299.996 88.02 301.33 88.02H304.01V87.9C304.01 87.0333 303.783 86.38 303.33 85.94C302.876 85.4867 302.27 85.26 301.51 85.26C300.856 85.26 300.29 85.4267 299.81 85.76C299.343 86.08 299.05 86.5533 298.93 87.18H297.21C297.276 86.46 297.516 85.8533 297.93 85.36C298.356 84.8667 298.883 84.4933 299.51 84.24C300.136 83.9733 300.803 83.84 301.51 83.84C302.896 83.84 303.936 84.2133 304.63 84.96C305.336 85.6933 305.69 86.6733 305.69 87.9V94H304.19L304.09 92.22C303.81 92.78 303.396 93.26 302.85 93.66C302.316 94.0467 301.596 94.24 300.69 94.24ZM300.95 92.82C301.59 92.82 302.136 92.6533 302.59 92.32C303.056 91.9867 303.41 91.5533 303.65 91.02C303.89 90.4867 304.01 89.9267 304.01 89.34V89.32H301.47C300.483 89.32 299.783 89.4933 299.37 89.84C298.97 90.1733 298.77 90.5933 298.77 91.1C298.77 91.62 298.956 92.04 299.33 92.36C299.716 92.6667 300.256 92.82 300.95 92.82ZM311.857 94C310.95 94 310.237 93.78 309.717 93.34C309.197 92.9 308.937 92.1067 308.937 90.96V85.5H307.217V84.08H308.937L309.157 81.7H310.617V84.08H313.537V85.5H310.617V90.96C310.617 91.5867 310.743 92.0133 310.997 92.24C311.25 92.4533 311.697 92.56 312.337 92.56H313.377V94H311.857ZM316.691 81.88C316.358 81.88 316.078 81.7733 315.851 81.56C315.638 81.3333 315.531 81.0533 315.531 80.72C315.531 80.4 315.638 80.1333 315.851 79.92C316.078 79.7067 316.358 79.6 316.691 79.6C317.011 79.6 317.284 79.7067 317.511 79.92C317.738 80.1333 317.851 80.4 317.851 80.72C317.851 81.0533 317.738 81.3333 317.511 81.56C317.284 81.7733 317.011 81.88 316.691 81.88ZM315.851 94V84.08H317.531V94H315.851ZM324.976 94.24C324.043 94.24 323.203 94.0267 322.456 93.6C321.71 93.1733 321.116 92.5733 320.676 91.8C320.25 91.0133 320.036 90.0933 320.036 89.04C320.036 87.9867 320.256 87.0733 320.696 86.3C321.136 85.5133 321.73 84.9067 322.476 84.48C323.236 84.0533 324.083 83.84 325.016 83.84C325.95 83.84 326.79 84.0533 327.536 84.48C328.283 84.9067 328.87 85.5133 329.296 86.3C329.736 87.0733 329.956 87.9867 329.956 89.04C329.956 90.0933 329.736 91.0133 329.296 91.8C328.856 92.5733 328.256 93.1733 327.496 93.6C326.75 94.0267 325.91 94.24 324.976 94.24ZM324.976 92.8C325.55 92.8 326.083 92.66 326.576 92.38C327.07 92.1 327.47 91.68 327.776 91.12C328.083 90.56 328.236 89.8667 328.236 89.04C328.236 88.2133 328.083 87.52 327.776 86.96C327.483 86.4 327.09 85.98 326.596 85.7C326.103 85.42 325.576 85.28 325.016 85.28C324.443 85.28 323.91 85.42 323.416 85.7C322.923 85.98 322.523 86.4 322.216 86.96C321.91 87.52 321.756 88.2133 321.756 89.04C321.756 89.8667 321.91 90.56 322.216 91.12C322.523 91.68 322.916 92.1 323.396 92.38C323.89 92.66 324.416 92.8 324.976 92.8ZM332.292 94V84.08H333.812L333.912 85.86C334.232 85.2333 334.692 84.74 335.292 84.38C335.892 84.02 336.572 83.84 337.332 83.84C338.505 83.84 339.439 84.2 340.132 84.92C340.839 85.6267 341.192 86.72 341.192 88.2V94H339.512V88.38C339.512 86.3133 338.659 85.28 336.952 85.28C336.099 85.28 335.385 85.5933 334.812 86.22C334.252 86.8333 333.972 87.7133 333.972 88.86V94H332.292ZM349.57 94V85.5H348.07V84.08H349.57V82.36C349.57 81.4 349.81 80.7 350.29 80.26C350.77 79.82 351.47 79.6 352.39 79.6H353.39V81.04H352.65C352.144 81.04 351.784 81.1467 351.57 81.36C351.357 81.56 351.25 81.9067 351.25 82.4V84.08H353.69V85.5H351.25V94H349.57ZM359.82 94.24C358.887 94.24 358.047 94.0267 357.3 93.6C356.553 93.1733 355.96 92.5733 355.52 91.8C355.093 91.0133 354.88 90.0933 354.88 89.04C354.88 87.9867 355.1 87.0733 355.54 86.3C355.98 85.5133 356.573 84.9067 357.32 84.48C358.08 84.0533 358.927 83.84 359.86 83.84C360.793 83.84 361.633 84.0533 362.38 84.48C363.127 84.9067 363.713 85.5133 364.14 86.3C364.58 87.0733 364.8 87.9867 364.8 89.04C364.8 90.0933 364.58 91.0133 364.14 91.8C363.7 92.5733 363.1 93.1733 362.34 93.6C361.593 94.0267 360.753 94.24 359.82 94.24ZM359.82 92.8C360.393 92.8 360.927 92.66 361.42 92.38C361.913 92.1 362.313 91.68 362.62 91.12C362.927 90.56 363.08 89.8667 363.08 89.04C363.08 88.2133 362.927 87.52 362.62 86.96C362.327 86.4 361.933 85.98 361.44 85.7C360.947 85.42 360.42 85.28 359.86 85.28C359.287 85.28 358.753 85.42 358.26 85.7C357.767 85.98 357.367 86.4 357.06 86.96C356.753 87.52 356.6 88.2133 356.6 89.04C356.6 89.8667 356.753 90.56 357.06 91.12C357.367 91.68 357.76 92.1 358.24 92.38C358.733 92.66 359.26 92.8 359.82 92.8ZM367.136 94V84.08H368.656L368.796 85.98C369.103 85.3267 369.569 84.8067 370.196 84.42C370.823 84.0333 371.596 83.84 372.516 83.84V85.6H372.056C371.469 85.6 370.929 85.7067 370.436 85.92C369.943 86.12 369.549 86.4667 369.256 86.96C368.963 87.4533 368.816 88.1333 368.816 89V94H367.136ZM384.254 94.24C383.308 94.24 382.454 94.0267 381.694 93.6C380.948 93.16 380.354 92.5533 379.914 91.78C379.488 90.9933 379.274 90.08 379.274 89.04C379.274 88 379.488 87.0933 379.914 86.32C380.354 85.5333 380.948 84.9267 381.694 84.5C382.454 84.06 383.308 83.84 384.254 83.84C385.428 83.84 386.414 84.1467 387.214 84.76C388.028 85.3733 388.541 86.1933 388.754 87.22H387.034C386.901 86.6067 386.574 86.1333 386.054 85.8C385.534 85.4533 384.928 85.28 384.234 85.28C383.674 85.28 383.148 85.42 382.654 85.7C382.161 85.98 381.761 86.4 381.454 86.96C381.148 87.52 380.994 88.2133 380.994 89.04C380.994 89.8667 381.148 90.56 381.454 91.12C381.761 91.68 382.161 92.1067 382.654 92.4C383.148 92.68 383.674 92.82 384.234 92.82C384.928 92.82 385.534 92.6533 386.054 92.32C386.574 91.9733 386.901 91.4867 387.034 90.86H388.754C388.554 91.86 388.048 92.6733 387.234 93.3C386.421 93.9267 385.428 94.24 384.254 94.24ZM395.621 94.24C394.687 94.24 393.847 94.0267 393.101 93.6C392.354 93.1733 391.761 92.5733 391.321 91.8C390.894 91.0133 390.681 90.0933 390.681 89.04C390.681 87.9867 390.901 87.0733 391.341 86.3C391.781 85.5133 392.374 84.9067 393.121 84.48C393.881 84.0533 394.727 83.84 395.661 83.84C396.594 83.84 397.434 84.0533 398.181 84.48C398.927 84.9067 399.514 85.5133 399.941 86.3C400.381 87.0733 400.601 87.9867 400.601 89.04C400.601 90.0933 400.381 91.0133 399.941 91.8C399.501 92.5733 398.901 93.1733 398.141 93.6C397.394 94.0267 396.554 94.24 395.621 94.24ZM395.621 92.8C396.194 92.8 396.727 92.66 397.221 92.38C397.714 92.1 398.114 91.68 398.421 91.12C398.727 90.56 398.881 89.8667 398.881 89.04C398.881 88.2133 398.727 87.52 398.421 86.96C398.127 86.4 397.734 85.98 397.241 85.7C396.747 85.42 396.221 85.28 395.661 85.28C395.087 85.28 394.554 85.42 394.061 85.7C393.567 85.98 393.167 86.4 392.861 86.96C392.554 87.52 392.401 88.2133 392.401 89.04C392.401 89.8667 392.554 90.56 392.861 91.12C393.167 91.68 393.561 92.1 394.041 92.38C394.534 92.66 395.061 92.8 395.621 92.8ZM402.937 94V84.08H404.457L404.577 85.52C404.897 84.9867 405.323 84.5733 405.857 84.28C406.39 83.9867 406.99 83.84 407.657 83.84C408.443 83.84 409.117 84 409.677 84.32C410.25 84.64 410.69 85.1267 410.997 85.78C411.343 85.18 411.817 84.7067 412.417 84.36C413.03 84.0133 413.69 83.84 414.397 83.84C415.583 83.84 416.53 84.2 417.237 84.92C417.943 85.6267 418.297 86.72 418.297 88.2V94H416.637V88.38C416.637 87.3533 416.43 86.58 416.017 86.06C415.603 85.54 415.01 85.28 414.237 85.28C413.437 85.28 412.77 85.5933 412.237 86.22C411.717 86.8333 411.457 87.7133 411.457 88.86V94H409.777V88.38C409.777 87.3533 409.57 86.58 409.157 86.06C408.743 85.54 408.15 85.28 407.377 85.28C406.59 85.28 405.93 85.5933 405.397 86.22C404.877 86.8333 404.617 87.7133 404.617 88.86V94H402.937ZM420.827 98.4V84.08H422.347L422.507 85.72C422.827 85.24 423.281 84.8067 423.867 84.42C424.467 84.0333 425.227 83.84 426.147 83.84C427.134 83.84 427.994 84.0667 428.727 84.52C429.461 84.9733 430.027 85.5933 430.427 86.38C430.841 87.1667 431.047 88.06 431.047 89.06C431.047 90.06 430.841 90.9533 430.427 91.74C430.027 92.5133 429.454 93.1267 428.707 93.58C427.974 94.02 427.114 94.24 426.127 94.24C425.314 94.24 424.587 94.0733 423.947 93.74C423.321 93.4067 422.841 92.94 422.507 92.34V98.4H420.827ZM425.947 92.78C426.614 92.78 427.201 92.6267 427.707 92.32C428.214 92 428.614 91.56 428.907 91C429.201 90.44 429.347 89.7867 429.347 89.04C429.347 88.2933 429.201 87.64 428.907 87.08C428.614 86.52 428.214 86.0867 427.707 85.78C427.201 85.46 426.614 85.3 425.947 85.3C425.281 85.3 424.694 85.46 424.187 85.78C423.681 86.0867 423.281 86.52 422.987 87.08C422.694 87.64 422.547 88.2933 422.547 89.04C422.547 89.7867 422.694 90.44 422.987 91C423.281 91.56 423.681 92 424.187 92.32C424.694 92.6267 425.281 92.78 425.947 92.78ZM436.686 94.24C435.859 94.24 435.173 94.1 434.626 93.82C434.079 93.54 433.673 93.1667 433.406 92.7C433.139 92.2333 433.006 91.7267 433.006 91.18C433.006 90.1667 433.393 89.3867 434.166 88.84C434.939 88.2933 435.993 88.02 437.326 88.02H440.006V87.9C440.006 87.0333 439.779 86.38 439.326 85.94C438.873 85.4867 438.266 85.26 437.506 85.26C436.853 85.26 436.286 85.4267 435.806 85.76C435.339 86.08 435.046 86.5533 434.926 87.18H433.206C433.273 86.46 433.513 85.8533 433.926 85.36C434.353 84.8667 434.879 84.4933 435.506 84.24C436.133 83.9733 436.799 83.84 437.506 83.84C438.893 83.84 439.933 84.2133 440.626 84.96C441.333 85.6933 441.686 86.6733 441.686 87.9V94H440.186L440.086 92.22C439.806 92.78 439.393 93.26 438.846 93.66C438.313 94.0467 437.593 94.24 436.686 94.24ZM436.946 92.82C437.586 92.82 438.133 92.6533 438.586 92.32C439.053 91.9867 439.406 91.5533 439.646 91.02C439.886 90.4867 440.006 89.9267 440.006 89.34V89.32H437.466C436.479 89.32 435.779 89.4933 435.366 89.84C434.966 90.1733 434.766 90.5933 434.766 91.1C434.766 91.62 434.953 92.04 435.326 92.36C435.713 92.6667 436.253 92.82 436.946 92.82ZM444.206 94V84.08H445.726L445.826 85.86C446.146 85.2333 446.606 84.74 447.206 84.38C447.806 84.02 448.486 83.84 449.246 83.84C450.42 83.84 451.353 84.2 452.046 84.92C452.753 85.6267 453.106 86.72 453.106 88.2V94H451.426V88.38C451.426 86.3133 450.573 85.28 448.866 85.28C448.013 85.28 447.3 85.5933 446.726 86.22C446.166 86.8333 445.886 87.7133 445.886 88.86V94H444.206ZM456.671 81.88C456.338 81.88 456.058 81.7733 455.831 81.56C455.618 81.3333 455.511 81.0533 455.511 80.72C455.511 80.4 455.618 80.1333 455.831 79.92C456.058 79.7067 456.338 79.6 456.671 79.6C456.991 79.6 457.265 79.7067 457.491 79.92C457.718 80.1333 457.831 80.4 457.831 80.72C457.831 81.0533 457.718 81.3333 457.491 81.56C457.265 81.7733 456.991 81.88 456.671 81.88ZM455.831 94V84.08H457.511V94H455.831ZM464.897 94.24C463.95 94.24 463.11 94.0267 462.377 93.6C461.643 93.16 461.063 92.5533 460.637 91.78C460.223 91.0067 460.017 90.0933 460.017 89.04C460.017 88 460.223 87.0933 460.637 86.32C461.05 85.5333 461.623 84.9267 462.357 84.5C463.103 84.06 463.963 83.84 464.937 83.84C465.897 83.84 466.723 84.06 467.417 84.5C468.123 84.9267 468.663 85.4933 469.037 86.2C469.41 86.9067 469.597 87.6667 469.597 88.48C469.597 88.6267 469.59 88.7733 469.577 88.92C469.577 89.0667 469.577 89.2333 469.577 89.42H461.677C461.717 90.18 461.89 90.8133 462.197 91.32C462.517 91.8133 462.91 92.1867 463.377 92.44C463.857 92.6933 464.363 92.82 464.897 92.82C465.59 92.82 466.17 92.66 466.637 92.34C467.103 92.02 467.443 91.5867 467.657 91.04H469.317C469.05 91.96 468.537 92.7267 467.777 93.34C467.03 93.94 466.07 94.24 464.897 94.24ZM464.897 85.26C464.097 85.26 463.383 85.5067 462.757 86C462.143 86.48 461.79 87.1867 461.697 88.12H467.937C467.897 87.2267 467.59 86.5267 467.017 86.02C466.443 85.5133 465.737 85.26 464.897 85.26ZM475.623 94.24C474.437 94.24 473.45 93.94 472.663 93.34C471.877 92.74 471.417 91.9267 471.283 90.9H473.003C473.11 91.42 473.383 91.8733 473.823 92.26C474.277 92.6333 474.883 92.82 475.643 92.82C476.35 92.82 476.87 92.6733 477.203 92.38C477.537 92.0733 477.703 91.7133 477.703 91.3C477.703 90.7 477.483 90.3 477.043 90.1C476.617 89.9 476.01 89.72 475.223 89.56C474.69 89.4533 474.157 89.3 473.623 89.1C473.09 88.9 472.643 88.62 472.283 88.26C471.923 87.8867 471.743 87.4 471.743 86.8C471.743 85.9333 472.063 85.2267 472.703 84.68C473.357 84.12 474.237 83.84 475.343 83.84C476.397 83.84 477.257 84.1067 477.923 84.64C478.603 85.16 478.997 85.9067 479.103 86.88H477.443C477.377 86.3733 477.157 85.98 476.783 85.7C476.423 85.4067 475.937 85.26 475.323 85.26C474.723 85.26 474.257 85.3867 473.923 85.64C473.603 85.8933 473.443 86.2267 473.443 86.64C473.443 87.04 473.65 87.3533 474.063 87.58C474.49 87.8067 475.063 88 475.783 88.16C476.397 88.2933 476.977 88.46 477.523 88.66C478.083 88.8467 478.537 89.1333 478.883 89.52C479.243 89.8933 479.423 90.44 479.423 91.16C479.437 92.0533 479.097 92.7933 478.403 93.38C477.723 93.9533 476.797 94.24 475.623 94.24ZM487.116 94V84.08H488.636L488.756 85.52C489.076 84.9867 489.503 84.5733 490.036 84.28C490.57 83.9867 491.17 83.84 491.836 83.84C492.623 83.84 493.296 84 493.856 84.32C494.43 84.64 494.87 85.1267 495.176 85.78C495.523 85.18 495.996 84.7067 496.596 84.36C497.21 84.0133 497.87 83.84 498.576 83.84C499.763 83.84 500.71 84.2 501.416 84.92C502.123 85.6267 502.476 86.72 502.476 88.2V94H500.816V88.38C500.816 87.3533 500.61 86.58 500.196 86.06C499.783 85.54 499.19 85.28 498.416 85.28C497.616 85.28 496.95 85.5933 496.416 86.22C495.896 86.8333 495.636 87.7133 495.636 88.86V94H493.956V88.38C493.956 87.3533 493.75 86.58 493.336 86.06C492.923 85.54 492.33 85.28 491.556 85.28C490.77 85.28 490.11 85.5933 489.576 86.22C489.056 86.8333 488.796 87.7133 488.796 88.86V94H487.116ZM508.307 94.24C507.48 94.24 506.794 94.1 506.247 93.82C505.7 93.54 505.294 93.1667 505.027 92.7C504.76 92.2333 504.627 91.7267 504.627 91.18C504.627 90.1667 505.014 89.3867 505.787 88.84C506.56 88.2933 507.614 88.02 508.947 88.02H511.627V87.9C511.627 87.0333 511.4 86.38 510.947 85.94C510.494 85.4867 509.887 85.26 509.127 85.26C508.474 85.26 507.907 85.4267 507.427 85.76C506.96 86.08 506.667 86.5533 506.547 87.18H504.827C504.894 86.46 505.134 85.8533 505.547 85.36C505.974 84.8667 506.5 84.4933 507.127 84.24C507.754 83.9733 508.42 83.84 509.127 83.84C510.514 83.84 511.554 84.2133 512.247 84.96C512.954 85.6933 513.307 86.6733 513.307 87.9V94H511.807L511.707 92.22C511.427 92.78 511.014 93.26 510.467 93.66C509.934 94.0467 509.214 94.24 508.307 94.24ZM508.567 92.82C509.207 92.82 509.754 92.6533 510.207 92.32C510.674 91.9867 511.027 91.5533 511.267 91.02C511.507 90.4867 511.627 89.9267 511.627 89.34V89.32H509.087C508.1 89.32 507.4 89.4933 506.987 89.84C506.587 90.1733 506.387 90.5933 506.387 91.1C506.387 91.62 506.574 92.04 506.947 92.36C507.334 92.6667 507.874 92.82 508.567 92.82ZM520.327 94.24C519.341 94.24 518.474 94.0133 517.727 93.56C516.994 93.1067 516.421 92.4867 516.007 91.7C515.607 90.9133 515.407 90.02 515.407 89.02C515.407 88.02 515.614 87.1333 516.027 86.36C516.441 85.5733 517.014 84.96 517.747 84.52C518.481 84.0667 519.347 83.84 520.347 83.84C521.161 83.84 521.881 84.0067 522.507 84.34C523.134 84.6733 523.621 85.14 523.967 85.74V79.6H525.647V94H524.127L523.967 92.36C523.647 92.84 523.187 93.2733 522.587 93.66C521.987 94.0467 521.234 94.24 520.327 94.24ZM520.507 92.78C521.174 92.78 521.761 92.6267 522.267 92.32C522.787 92 523.187 91.56 523.467 91C523.761 90.44 523.907 89.7867 523.907 89.04C523.907 88.2933 523.761 87.64 523.467 87.08C523.187 86.52 522.787 86.0867 522.267 85.78C521.761 85.46 521.174 85.3 520.507 85.3C519.854 85.3 519.267 85.46 518.747 85.78C518.241 86.0867 517.841 86.52 517.547 87.08C517.267 87.64 517.127 88.2933 517.127 89.04C517.127 89.7867 517.267 90.44 517.547 91C517.841 91.56 518.241 92 518.747 92.32C519.267 92.6267 519.854 92.78 520.507 92.78ZM532.846 94.24C531.899 94.24 531.059 94.0267 530.326 93.6C529.593 93.16 529.013 92.5533 528.586 91.78C528.173 91.0067 527.966 90.0933 527.966 89.04C527.966 88 528.173 87.0933 528.586 86.32C528.999 85.5333 529.573 84.9267 530.306 84.5C531.053 84.06 531.913 83.84 532.886 83.84C533.846 83.84 534.673 84.06 535.366 84.5C536.073 84.9267 536.613 85.4933 536.986 86.2C537.359 86.9067 537.546 87.6667 537.546 88.48C537.546 88.6267 537.539 88.7733 537.526 88.92C537.526 89.0667 537.526 89.2333 537.526 89.42H529.626C529.666 90.18 529.839 90.8133 530.146 91.32C530.466 91.8133 530.859 92.1867 531.326 92.44C531.806 92.6933 532.313 92.82 532.846 92.82C533.539 92.82 534.119 92.66 534.586 92.34C535.053 92.02 535.393 91.5867 535.606 91.04H537.266C536.999 91.96 536.486 92.7267 535.726 93.34C534.979 93.94 534.019 94.24 532.846 94.24ZM532.846 85.26C532.046 85.26 531.333 85.5067 530.706 86C530.093 86.48 529.739 87.1867 529.646 88.12H535.886C535.846 87.2267 535.539 86.5267 534.966 86.02C534.393 85.5133 533.686 85.26 532.846 85.26ZM545.606 94V85.5H544.106V84.08H545.606V82.36C545.606 81.4 545.846 80.7 546.326 80.26C546.806 79.82 547.506 79.6 548.426 79.6H549.426V81.04H548.686C548.179 81.04 547.819 81.1467 547.606 81.36C547.392 81.56 547.286 81.9067 547.286 82.4V84.08H549.726V85.5H547.286V94H545.606ZM555.855 94.24C554.922 94.24 554.082 94.0267 553.335 93.6C552.588 93.1733 551.995 92.5733 551.555 91.8C551.128 91.0133 550.915 90.0933 550.915 89.04C550.915 87.9867 551.135 87.0733 551.575 86.3C552.015 85.5133 552.608 84.9067 553.355 84.48C554.115 84.0533 554.962 83.84 555.895 83.84C556.828 83.84 557.668 84.0533 558.415 84.48C559.162 84.9067 559.748 85.5133 560.175 86.3C560.615 87.0733 560.835 87.9867 560.835 89.04C560.835 90.0933 560.615 91.0133 560.175 91.8C559.735 92.5733 559.135 93.1733 558.375 93.6C557.628 94.0267 556.788 94.24 555.855 94.24ZM555.855 92.8C556.428 92.8 556.962 92.66 557.455 92.38C557.948 92.1 558.348 91.68 558.655 91.12C558.962 90.56 559.115 89.8667 559.115 89.04C559.115 88.2133 558.962 87.52 558.655 86.96C558.362 86.4 557.968 85.98 557.475 85.7C556.982 85.42 556.455 85.28 555.895 85.28C555.322 85.28 554.788 85.42 554.295 85.7C553.802 85.98 553.402 86.4 553.095 86.96C552.788 87.52 552.635 88.2133 552.635 89.04C552.635 89.8667 552.788 90.56 553.095 91.12C553.402 91.68 553.795 92.1 554.275 92.38C554.768 92.66 555.295 92.8 555.855 92.8ZM563.171 94V84.08H564.691L564.831 85.98C565.138 85.3267 565.604 84.8067 566.231 84.42C566.858 84.0333 567.631 83.84 568.551 83.84V85.6H568.091C567.504 85.6 566.964 85.7067 566.471 85.92C565.978 86.12 565.584 86.4667 565.291 86.96C564.998 87.4533 564.851 88.1333 564.851 89V94H563.171ZM581.03 94.24C580.216 94.24 579.49 94.0733 578.85 93.74C578.223 93.4067 577.743 92.94 577.41 92.34L577.25 94H575.73V79.6H577.41V85.72C577.73 85.24 578.183 84.8067 578.77 84.42C579.37 84.0333 580.13 83.84 581.05 83.84C582.036 83.84 582.896 84.0667 583.63 84.52C584.363 84.9733 584.93 85.5933 585.33 86.38C585.743 87.1667 585.95 88.06 585.95 89.06C585.95 90.06 585.743 90.9533 585.33 91.74C584.93 92.5133 584.356 93.1267 583.61 93.58C582.876 94.02 582.016 94.24 581.03 94.24ZM580.85 92.78C581.516 92.78 582.103 92.6267 582.61 92.32C583.116 92 583.516 91.56 583.81 91C584.103 90.44 584.25 89.7867 584.25 89.04C584.25 88.2933 584.103 87.64 583.81 87.08C583.516 86.52 583.116 86.0867 582.61 85.78C582.103 85.46 581.516 85.3 580.85 85.3C580.183 85.3 579.596 85.46 579.09 85.78C578.583 86.0867 578.183 86.52 577.89 87.08C577.596 87.64 577.45 88.2933 577.45 89.04C577.45 89.7867 577.596 90.44 577.89 91C578.183 91.56 578.583 92 579.09 92.32C579.596 92.6267 580.183 92.78 580.85 92.78ZM592.808 94.24C591.875 94.24 591.035 94.0267 590.288 93.6C589.542 93.1733 588.948 92.5733 588.508 91.8C588.082 91.0133 587.868 90.0933 587.868 89.04C587.868 87.9867 588.088 87.0733 588.528 86.3C588.968 85.5133 589.562 84.9067 590.308 84.48C591.068 84.0533 591.915 83.84 592.848 83.84C593.782 83.84 594.622 84.0533 595.368 84.48C596.115 84.9067 596.702 85.5133 597.128 86.3C597.568 87.0733 597.788 87.9867 597.788 89.04C597.788 90.0933 597.568 91.0133 597.128 91.8C596.688 92.5733 596.088 93.1733 595.328 93.6C594.582 94.0267 593.742 94.24 592.808 94.24ZM592.808 92.8C593.382 92.8 593.915 92.66 594.408 92.38C594.902 92.1 595.302 91.68 595.608 91.12C595.915 90.56 596.068 89.8667 596.068 89.04C596.068 88.2133 595.915 87.52 595.608 86.96C595.315 86.4 594.922 85.98 594.428 85.7C593.935 85.42 593.408 85.28 592.848 85.28C592.275 85.28 591.742 85.42 591.248 85.7C590.755 85.98 590.355 86.4 590.048 86.96C589.742 87.52 589.588 88.2133 589.588 89.04C589.588 89.8667 589.742 90.56 590.048 91.12C590.355 91.68 590.748 92.1 591.228 92.38C591.722 92.66 592.248 92.8 592.808 92.8ZM603.654 94C602.747 94 602.034 93.78 601.514 93.34C600.994 92.9 600.734 92.1067 600.734 90.96V85.5H599.014V84.08H600.734L600.954 81.7H602.414V84.08H605.334V85.5H602.414V90.96C602.414 91.5867 602.54 92.0133 602.794 92.24C603.047 92.4533 603.494 92.56 604.134 92.56H605.174V94H603.654ZM607.468 94V79.6H609.148V85.78C609.481 85.1667 609.955 84.6933 610.568 84.36C611.181 84.0133 611.848 83.84 612.568 83.84C613.715 83.84 614.635 84.2 615.328 84.92C616.021 85.6267 616.368 86.72 616.368 88.2V94H614.708V88.38C614.708 86.3133 613.875 85.28 612.208 85.28C611.341 85.28 610.615 85.5933 610.028 86.22C609.441 86.8333 609.148 87.7133 609.148 88.86V94H607.468ZM110.378 120.24C109.431 120.24 108.578 120.027 107.818 119.6C107.071 119.16 106.478 118.553 106.038 117.78C105.611 116.993 105.398 116.08 105.398 115.04C105.398 114 105.611 113.093 106.038 112.32C106.478 111.533 107.071 110.927 107.818 110.5C108.578 110.06 109.431 109.84 110.378 109.84C111.551 109.84 112.538 110.147 113.338 110.76C114.151 111.373 114.664 112.193 114.878 113.22H113.158C113.024 112.607 112.698 112.133 112.178 111.8C111.658 111.453 111.051 111.28 110.358 111.28C109.798 111.28 109.271 111.42 108.778 111.7C108.284 111.98 107.884 112.4 107.578 112.96C107.271 113.52 107.118 114.213 107.118 115.04C107.118 115.867 107.271 116.56 107.578 117.12C107.884 117.68 108.284 118.107 108.778 118.4C109.271 118.68 109.798 118.82 110.358 118.82C111.051 118.82 111.658 118.653 112.178 118.32C112.698 117.973 113.024 117.487 113.158 116.86H114.878C114.678 117.86 114.171 118.673 113.358 119.3C112.544 119.927 111.551 120.24 110.378 120.24ZM120.844 120.24C119.67 120.24 118.737 119.887 118.044 119.18C117.35 118.46 117.004 117.36 117.004 115.88V110.08H118.684V115.7C118.684 117.767 119.53 118.8 121.224 118.8C122.09 118.8 122.804 118.493 123.364 117.88C123.937 117.253 124.224 116.367 124.224 115.22V110.08H125.904V120H124.384L124.264 118.22C123.957 118.847 123.497 119.34 122.884 119.7C122.284 120.06 121.604 120.24 120.844 120.24ZM132.469 120.24C131.282 120.24 130.296 119.94 129.509 119.34C128.722 118.74 128.262 117.927 128.129 116.9H129.849C129.956 117.42 130.229 117.873 130.669 118.26C131.122 118.633 131.729 118.82 132.489 118.82C133.196 118.82 133.716 118.673 134.049 118.38C134.382 118.073 134.549 117.713 134.549 117.3C134.549 116.7 134.329 116.3 133.889 116.1C133.462 115.9 132.856 115.72 132.069 115.56C131.536 115.453 131.002 115.3 130.469 115.1C129.936 114.9 129.489 114.62 129.129 114.26C128.769 113.887 128.589 113.4 128.589 112.8C128.589 111.933 128.909 111.227 129.549 110.68C130.202 110.12 131.082 109.84 132.189 109.84C133.242 109.84 134.102 110.107 134.769 110.64C135.449 111.16 135.842 111.907 135.949 112.88H134.289C134.222 112.373 134.002 111.98 133.629 111.7C133.269 111.407 132.782 111.26 132.169 111.26C131.569 111.26 131.102 111.387 130.769 111.64C130.449 111.893 130.289 112.227 130.289 112.64C130.289 113.04 130.496 113.353 130.909 113.58C131.336 113.807 131.909 114 132.629 114.16C133.242 114.293 133.822 114.46 134.369 114.66C134.929 114.847 135.382 115.133 135.729 115.52C136.089 115.893 136.269 116.44 136.269 117.16C136.282 118.053 135.942 118.793 135.249 119.38C134.569 119.953 133.642 120.24 132.469 120.24ZM142.14 120C141.233 120 140.52 119.78 140 119.34C139.48 118.9 139.22 118.107 139.22 116.96V111.5H137.5V110.08H139.22L139.44 107.7H140.9V110.08H143.82V111.5H140.9V116.96C140.9 117.587 141.027 118.013 141.28 118.24C141.533 118.453 141.98 118.56 142.62 118.56H143.66V120H142.14ZM150.201 120.24C149.267 120.24 148.427 120.027 147.681 119.6C146.934 119.173 146.341 118.573 145.901 117.8C145.474 117.013 145.261 116.093 145.261 115.04C145.261 113.987 145.481 113.073 145.921 112.3C146.361 111.513 146.954 110.907 147.701 110.48C148.461 110.053 149.307 109.84 150.241 109.84C151.174 109.84 152.014 110.053 152.761 110.48C153.507 110.907 154.094 111.513 154.521 112.3C154.961 113.073 155.181 113.987 155.181 115.04C155.181 116.093 154.961 117.013 154.521 117.8C154.081 118.573 153.481 119.173 152.721 119.6C151.974 120.027 151.134 120.24 150.201 120.24ZM150.201 118.8C150.774 118.8 151.307 118.66 151.801 118.38C152.294 118.1 152.694 117.68 153.001 117.12C153.307 116.56 153.461 115.867 153.461 115.04C153.461 114.213 153.307 113.52 153.001 112.96C152.707 112.4 152.314 111.98 151.821 111.7C151.327 111.42 150.801 111.28 150.241 111.28C149.667 111.28 149.134 111.42 148.641 111.7C148.147 111.98 147.747 112.4 147.441 112.96C147.134 113.52 146.981 114.213 146.981 115.04C146.981 115.867 147.134 116.56 147.441 117.12C147.747 117.68 148.141 118.1 148.621 118.38C149.114 118.66 149.641 118.8 150.201 118.8ZM157.517 120V110.08H159.037L159.157 111.52C159.477 110.987 159.903 110.573 160.437 110.28C160.97 109.987 161.57 109.84 162.237 109.84C163.023 109.84 163.697 110 164.257 110.32C164.83 110.64 165.27 111.127 165.577 111.78C165.923 111.18 166.397 110.707 166.997 110.36C167.61 110.013 168.27 109.84 168.977 109.84C170.163 109.84 171.11 110.2 171.817 110.92C172.523 111.627 172.877 112.72 172.877 114.2V120H171.217V114.38C171.217 113.353 171.01 112.58 170.597 112.06C170.183 111.54 169.59 111.28 168.817 111.28C168.017 111.28 167.35 111.593 166.817 112.22C166.297 112.833 166.037 113.713 166.037 114.86V120H164.357V114.38C164.357 113.353 164.15 112.58 163.737 112.06C163.323 111.54 162.73 111.28 161.957 111.28C161.17 111.28 160.51 111.593 159.977 112.22C159.457 112.833 159.197 113.713 159.197 114.86V120H157.517ZM179.867 120.24C178.921 120.24 178.081 120.027 177.347 119.6C176.614 119.16 176.034 118.553 175.607 117.78C175.194 117.007 174.987 116.093 174.987 115.04C174.987 114 175.194 113.093 175.607 112.32C176.021 111.533 176.594 110.927 177.327 110.5C178.074 110.06 178.934 109.84 179.907 109.84C180.867 109.84 181.694 110.06 182.387 110.5C183.094 110.927 183.634 111.493 184.007 112.2C184.381 112.907 184.567 113.667 184.567 114.48C184.567 114.627 184.561 114.773 184.547 114.92C184.547 115.067 184.547 115.233 184.547 115.42H176.647C176.687 116.18 176.861 116.813 177.167 117.32C177.487 117.813 177.881 118.187 178.347 118.44C178.827 118.693 179.334 118.82 179.867 118.82C180.561 118.82 181.141 118.66 181.607 118.34C182.074 118.02 182.414 117.587 182.627 117.04H184.287C184.021 117.96 183.507 118.727 182.747 119.34C182.001 119.94 181.041 120.24 179.867 120.24ZM179.867 111.26C179.067 111.26 178.354 111.507 177.727 112C177.114 112.48 176.761 113.187 176.667 114.12H182.907C182.867 113.227 182.561 112.527 181.987 112.02C181.414 111.513 180.707 111.26 179.867 111.26ZM186.794 120V110.08H188.314L188.454 111.98C188.761 111.327 189.227 110.807 189.854 110.42C190.481 110.033 191.254 109.84 192.174 109.84V111.6H191.714C191.127 111.6 190.587 111.707 190.094 111.92C189.601 112.12 189.207 112.467 188.914 112.96C188.621 113.453 188.474 114.133 188.474 115V120H186.794ZM197.86 120.24C196.673 120.24 195.686 119.94 194.9 119.34C194.113 118.74 193.653 117.927 193.52 116.9H195.24C195.346 117.42 195.62 117.873 196.06 118.26C196.513 118.633 197.12 118.82 197.88 118.82C198.586 118.82 199.106 118.673 199.44 118.38C199.773 118.073 199.94 117.713 199.94 117.3C199.94 116.7 199.72 116.3 199.28 116.1C198.853 115.9 198.246 115.72 197.46 115.56C196.926 115.453 196.393 115.3 195.86 115.1C195.326 114.9 194.88 114.62 194.52 114.26C194.16 113.887 193.98 113.4 193.98 112.8C193.98 111.933 194.3 111.227 194.94 110.68C195.593 110.12 196.473 109.84 197.58 109.84C198.633 109.84 199.493 110.107 200.16 110.64C200.84 111.16 201.233 111.907 201.34 112.88H199.68C199.613 112.373 199.393 111.98 199.02 111.7C198.66 111.407 198.173 111.26 197.56 111.26C196.96 111.26 196.493 111.387 196.16 111.64C195.84 111.893 195.68 112.227 195.68 112.64C195.68 113.04 195.886 113.353 196.3 113.58C196.726 113.807 197.3 114 198.02 114.16C198.633 114.293 199.213 114.46 199.76 114.66C200.32 114.847 200.773 115.133 201.12 115.52C201.48 115.893 201.66 116.44 201.66 117.16C201.673 118.053 201.333 118.793 200.64 119.38C199.96 119.953 199.033 120.24 197.86 120.24ZM212.653 120.24C211.826 120.24 211.139 120.1 210.593 119.82C210.046 119.54 209.639 119.167 209.373 118.7C209.106 118.233 208.973 117.727 208.973 117.18C208.973 116.167 209.359 115.387 210.133 114.84C210.906 114.293 211.959 114.02 213.293 114.02H215.973V113.9C215.973 113.033 215.746 112.38 215.293 111.94C214.839 111.487 214.233 111.26 213.473 111.26C212.819 111.26 212.253 111.427 211.773 111.76C211.306 112.08 211.013 112.553 210.893 113.18H209.173C209.239 112.46 209.479 111.853 209.893 111.36C210.319 110.867 210.846 110.493 211.473 110.24C212.099 109.973 212.766 109.84 213.473 109.84C214.859 109.84 215.899 110.213 216.593 110.96C217.299 111.693 217.653 112.673 217.653 113.9V120H216.153L216.053 118.22C215.773 118.78 215.359 119.26 214.813 119.66C214.279 120.047 213.559 120.24 212.653 120.24ZM212.913 118.82C213.553 118.82 214.099 118.653 214.553 118.32C215.019 117.987 215.373 117.553 215.613 117.02C215.853 116.487 215.973 115.927 215.973 115.34V115.32H213.433C212.446 115.32 211.746 115.493 211.333 115.84C210.933 116.173 210.733 116.593 210.733 117.1C210.733 117.62 210.919 118.04 211.293 118.36C211.679 118.667 212.219 118.82 212.913 118.82ZM220.173 120V110.08H221.693L221.793 111.86C222.113 111.233 222.573 110.74 223.173 110.38C223.773 110.02 224.453 109.84 225.213 109.84C226.386 109.84 227.32 110.2 228.013 110.92C228.72 111.627 229.073 112.72 229.073 114.2V120H227.393V114.38C227.393 112.313 226.54 111.28 224.833 111.28C223.98 111.28 223.266 111.593 222.693 112.22C222.133 112.833 221.853 113.713 221.853 114.86V120H220.173ZM236.118 120.24C235.132 120.24 234.265 120.013 233.518 119.56C232.785 119.107 232.212 118.487 231.798 117.7C231.398 116.913 231.198 116.02 231.198 115.02C231.198 114.02 231.405 113.133 231.818 112.36C232.232 111.573 232.805 110.96 233.538 110.52C234.272 110.067 235.138 109.84 236.138 109.84C236.952 109.84 237.672 110.007 238.298 110.34C238.925 110.673 239.412 111.14 239.758 111.74V105.6H241.438V120H239.918L239.758 118.36C239.438 118.84 238.978 119.273 238.378 119.66C237.778 120.047 237.025 120.24 236.118 120.24ZM236.298 118.78C236.965 118.78 237.552 118.627 238.058 118.32C238.578 118 238.978 117.56 239.258 117C239.552 116.44 239.698 115.787 239.698 115.04C239.698 114.293 239.552 113.64 239.258 113.08C238.978 112.52 238.578 112.087 238.058 111.78C237.552 111.46 236.965 111.3 236.298 111.3C235.645 111.3 235.058 111.46 234.538 111.78C234.032 112.087 233.632 112.52 233.338 113.08C233.058 113.64 232.918 114.293 232.918 115.04C232.918 115.787 233.058 116.44 233.338 117C233.632 117.56 234.032 118 234.538 118.32C235.058 118.627 235.645 118.78 236.298 118.78ZM250.49 107.88C250.157 107.88 249.877 107.773 249.65 107.56C249.437 107.333 249.33 107.053 249.33 106.72C249.33 106.4 249.437 106.133 249.65 105.92C249.877 105.707 250.157 105.6 250.49 105.6C250.81 105.6 251.083 105.707 251.31 105.92C251.537 106.133 251.65 106.4 251.65 106.72C251.65 107.053 251.537 107.333 251.31 107.56C251.083 107.773 250.81 107.88 250.49 107.88ZM249.65 120V110.08H251.33V120H249.65ZM254.255 120V110.08H255.775L255.875 111.86C256.195 111.233 256.655 110.74 257.255 110.38C257.855 110.02 258.535 109.84 259.295 109.84C260.468 109.84 261.402 110.2 262.095 110.92C262.802 111.627 263.155 112.72 263.155 114.2V120H261.475V114.38C261.475 112.313 260.622 111.28 258.915 111.28C258.062 111.28 257.348 111.593 256.775 112.22C256.215 112.833 255.935 113.713 255.935 114.86V120H254.255ZM269.62 120C268.714 120 268 119.78 267.48 119.34C266.96 118.9 266.7 118.107 266.7 116.96V111.5H264.98V110.08H266.7L266.92 107.7H268.38V110.08H271.3V111.5H268.38V116.96C268.38 117.587 268.507 118.013 268.76 118.24C269.014 118.453 269.46 118.56 270.1 118.56H271.14V120H269.62ZM277.621 120.24C276.675 120.24 275.835 120.027 275.101 119.6C274.368 119.16 273.788 118.553 273.361 117.78C272.948 117.007 272.741 116.093 272.741 115.04C272.741 114 272.948 113.093 273.361 112.32C273.775 111.533 274.348 110.927 275.081 110.5C275.828 110.06 276.688 109.84 277.661 109.84C278.621 109.84 279.448 110.06 280.141 110.5C280.848 110.927 281.388 111.493 281.761 112.2C282.135 112.907 282.321 113.667 282.321 114.48C282.321 114.627 282.315 114.773 282.301 114.92C282.301 115.067 282.301 115.233 282.301 115.42H274.401C274.441 116.18 274.615 116.813 274.921 117.32C275.241 117.813 275.635 118.187 276.101 118.44C276.581 118.693 277.088 118.82 277.621 118.82C278.315 118.82 278.895 118.66 279.361 118.34C279.828 118.02 280.168 117.587 280.381 117.04H282.041C281.775 117.96 281.261 118.727 280.501 119.34C279.755 119.94 278.795 120.24 277.621 120.24ZM277.621 111.26C276.821 111.26 276.108 111.507 275.481 112C274.868 112.48 274.515 113.187 274.421 114.12H280.661C280.621 113.227 280.315 112.527 279.741 112.02C279.168 111.513 278.461 111.26 277.621 111.26ZM284.548 120V110.08H286.068L286.208 111.98C286.515 111.327 286.981 110.807 287.608 110.42C288.235 110.033 289.008 109.84 289.928 109.84V111.6H289.468C288.881 111.6 288.341 111.707 287.848 111.92C287.355 112.12 286.961 112.467 286.668 112.96C286.375 113.453 286.228 114.133 286.228 115V120H284.548ZM291.814 120V110.08H293.334L293.434 111.86C293.754 111.233 294.214 110.74 294.814 110.38C295.414 110.02 296.094 109.84 296.854 109.84C298.027 109.84 298.96 110.2 299.654 110.92C300.36 111.627 300.714 112.72 300.714 114.2V120H299.034V114.38C299.034 112.313 298.18 111.28 296.474 111.28C295.62 111.28 294.907 111.593 294.334 112.22C293.774 112.833 293.494 113.713 293.494 114.86V120H291.814ZM306.559 120.24C305.732 120.24 305.046 120.1 304.499 119.82C303.952 119.54 303.546 119.167 303.279 118.7C303.012 118.233 302.879 117.727 302.879 117.18C302.879 116.167 303.266 115.387 304.039 114.84C304.812 114.293 305.866 114.02 307.199 114.02H309.879V113.9C309.879 113.033 309.652 112.38 309.199 111.94C308.746 111.487 308.139 111.26 307.379 111.26C306.726 111.26 306.159 111.427 305.679 111.76C305.212 112.08 304.919 112.553 304.799 113.18H303.079C303.146 112.46 303.386 111.853 303.799 111.36C304.226 110.867 304.752 110.493 305.379 110.24C306.006 109.973 306.672 109.84 307.379 109.84C308.766 109.84 309.806 110.213 310.499 110.96C311.206 111.693 311.559 112.673 311.559 113.9V120H310.059L309.959 118.22C309.679 118.78 309.266 119.26 308.719 119.66C308.186 120.047 307.466 120.24 306.559 120.24ZM306.819 118.82C307.459 118.82 308.006 118.653 308.459 118.32C308.926 117.987 309.279 117.553 309.519 117.02C309.759 116.487 309.879 115.927 309.879 115.34V115.32H307.339C306.352 115.32 305.652 115.493 305.239 115.84C304.839 116.173 304.639 116.593 304.639 117.1C304.639 117.62 304.826 118.04 305.199 118.36C305.586 118.667 306.126 118.82 306.819 118.82ZM314.079 120V105.6H315.759V120H314.079ZM328.366 120.24C327.419 120.24 326.566 120.027 325.806 119.6C325.059 119.16 324.466 118.553 324.026 117.78C323.599 116.993 323.386 116.08 323.386 115.04C323.386 114 323.599 113.093 324.026 112.32C324.466 111.533 325.059 110.927 325.806 110.5C326.566 110.06 327.419 109.84 328.366 109.84C329.539 109.84 330.526 110.147 331.326 110.76C332.139 111.373 332.652 112.193 332.866 113.22H331.146C331.012 112.607 330.686 112.133 330.166 111.8C329.646 111.453 329.039 111.28 328.346 111.28C327.786 111.28 327.259 111.42 326.766 111.7C326.272 111.98 325.872 112.4 325.566 112.96C325.259 113.52 325.106 114.213 325.106 115.04C325.106 115.867 325.259 116.56 325.566 117.12C325.872 117.68 326.272 118.107 326.766 118.4C327.259 118.68 327.786 118.82 328.346 118.82C329.039 118.82 329.646 118.653 330.166 118.32C330.686 117.973 331.012 117.487 331.146 116.86H332.866C332.666 117.86 332.159 118.673 331.346 119.3C330.532 119.927 329.539 120.24 328.366 120.24ZM335.212 120V110.08H336.732L336.872 111.98C337.179 111.327 337.645 110.807 338.272 110.42C338.899 110.033 339.672 109.84 340.592 109.84V111.6H340.132C339.545 111.6 339.005 111.707 338.512 111.92C338.019 112.12 337.625 112.467 337.332 112.96C337.039 113.453 336.892 114.133 336.892 115V120H335.212ZM346.627 120.24C345.693 120.24 344.853 120.027 344.107 119.6C343.36 119.173 342.767 118.573 342.327 117.8C341.9 117.013 341.687 116.093 341.687 115.04C341.687 113.987 341.907 113.073 342.347 112.3C342.787 111.513 343.38 110.907 344.127 110.48C344.887 110.053 345.733 109.84 346.667 109.84C347.6 109.84 348.44 110.053 349.187 110.48C349.933 110.907 350.52 111.513 350.947 112.3C351.387 113.073 351.607 113.987 351.607 115.04C351.607 116.093 351.387 117.013 350.947 117.8C350.507 118.573 349.907 119.173 349.147 119.6C348.4 120.027 347.56 120.24 346.627 120.24ZM346.627 118.8C347.2 118.8 347.733 118.66 348.227 118.38C348.72 118.1 349.12 117.68 349.427 117.12C349.733 116.56 349.887 115.867 349.887 115.04C349.887 114.213 349.733 113.52 349.427 112.96C349.133 112.4 348.74 111.98 348.247 111.7C347.753 111.42 347.227 111.28 346.667 111.28C346.093 111.28 345.56 111.42 345.067 111.7C344.573 111.98 344.173 112.4 343.867 112.96C343.56 113.52 343.407 114.213 343.407 115.04C343.407 115.867 343.56 116.56 343.867 117.12C344.173 117.68 344.567 118.1 345.047 118.38C345.54 118.66 346.067 118.8 346.627 118.8ZM357.743 120.24C356.556 120.24 355.569 119.94 354.783 119.34C353.996 118.74 353.536 117.927 353.403 116.9H355.123C355.229 117.42 355.503 117.873 355.943 118.26C356.396 118.633 357.003 118.82 357.763 118.82C358.469 118.82 358.989 118.673 359.323 118.38C359.656 118.073 359.823 117.713 359.823 117.3C359.823 116.7 359.603 116.3 359.163 116.1C358.736 115.9 358.129 115.72 357.343 115.56C356.809 115.453 356.276 115.3 355.743 115.1C355.209 114.9 354.763 114.62 354.403 114.26C354.043 113.887 353.863 113.4 353.863 112.8C353.863 111.933 354.183 111.227 354.823 110.68C355.476 110.12 356.356 109.84 357.463 109.84C358.516 109.84 359.376 110.107 360.043 110.64C360.723 111.16 361.116 111.907 361.223 112.88H359.563C359.496 112.373 359.276 111.98 358.903 111.7C358.543 111.407 358.056 111.26 357.443 111.26C356.843 111.26 356.376 111.387 356.043 111.64C355.723 111.893 355.563 112.227 355.563 112.64C355.563 113.04 355.769 113.353 356.183 113.58C356.609 113.807 357.183 114 357.903 114.16C358.516 114.293 359.096 114.46 359.643 114.66C360.203 114.847 360.656 115.133 361.003 115.52C361.363 115.893 361.543 116.44 361.543 117.16C361.556 118.053 361.216 118.793 360.523 119.38C359.843 119.953 358.916 120.24 357.743 120.24ZM367.743 120.24C366.556 120.24 365.569 119.94 364.783 119.34C363.996 118.74 363.536 117.927 363.403 116.9H365.123C365.229 117.42 365.503 117.873 365.943 118.26C366.396 118.633 367.003 118.82 367.763 118.82C368.469 118.82 368.989 118.673 369.323 118.38C369.656 118.073 369.823 117.713 369.823 117.3C369.823 116.7 369.603 116.3 369.163 116.1C368.736 115.9 368.129 115.72 367.343 115.56C366.809 115.453 366.276 115.3 365.743 115.1C365.209 114.9 364.763 114.62 364.403 114.26C364.043 113.887 363.863 113.4 363.863 112.8C363.863 111.933 364.183 111.227 364.823 110.68C365.476 110.12 366.356 109.84 367.463 109.84C368.516 109.84 369.376 110.107 370.043 110.64C370.723 111.16 371.116 111.907 371.223 112.88H369.563C369.496 112.373 369.276 111.98 368.903 111.7C368.543 111.407 368.056 111.26 367.443 111.26C366.843 111.26 366.376 111.387 366.043 111.64C365.723 111.893 365.563 112.227 365.563 112.64C365.563 113.04 365.769 113.353 366.183 113.58C366.609 113.807 367.183 114 367.903 114.16C368.516 114.293 369.096 114.46 369.643 114.66C370.203 114.847 370.656 115.133 371.003 115.52C371.363 115.893 371.543 116.44 371.543 117.16C371.556 118.053 371.216 118.793 370.523 119.38C369.843 119.953 368.916 120.24 367.743 120.24ZM373.743 114.9V113.48H381.663V114.9H373.743ZM388.756 120.24C387.81 120.24 386.956 120.027 386.196 119.6C385.45 119.16 384.856 118.553 384.416 117.78C383.99 116.993 383.776 116.08 383.776 115.04C383.776 114 383.99 113.093 384.416 112.32C384.856 111.533 385.45 110.927 386.196 110.5C386.956 110.06 387.81 109.84 388.756 109.84C389.93 109.84 390.916 110.147 391.716 110.76C392.53 111.373 393.043 112.193 393.256 113.22H391.536C391.403 112.607 391.076 112.133 390.556 111.8C390.036 111.453 389.43 111.28 388.736 111.28C388.176 111.28 387.65 111.42 387.156 111.7C386.663 111.98 386.263 112.4 385.956 112.96C385.65 113.52 385.496 114.213 385.496 115.04C385.496 115.867 385.65 116.56 385.956 117.12C386.263 117.68 386.663 118.107 387.156 118.4C387.65 118.68 388.176 118.82 388.736 118.82C389.43 118.82 390.036 118.653 390.556 118.32C391.076 117.973 391.403 117.487 391.536 116.86H393.256C393.056 117.86 392.55 118.673 391.736 119.3C390.923 119.927 389.93 120.24 388.756 120.24ZM400.123 120.24C399.189 120.24 398.349 120.027 397.603 119.6C396.856 119.173 396.263 118.573 395.823 117.8C395.396 117.013 395.183 116.093 395.183 115.04C395.183 113.987 395.403 113.073 395.843 112.3C396.283 111.513 396.876 110.907 397.623 110.48C398.383 110.053 399.229 109.84 400.163 109.84C401.096 109.84 401.936 110.053 402.683 110.48C403.429 110.907 404.016 111.513 404.443 112.3C404.883 113.073 405.103 113.987 405.103 115.04C405.103 116.093 404.883 117.013 404.443 117.8C404.003 118.573 403.403 119.173 402.643 119.6C401.896 120.027 401.056 120.24 400.123 120.24ZM400.123 118.8C400.696 118.8 401.229 118.66 401.723 118.38C402.216 118.1 402.616 117.68 402.923 117.12C403.229 116.56 403.383 115.867 403.383 115.04C403.383 114.213 403.229 113.52 402.923 112.96C402.629 112.4 402.236 111.98 401.743 111.7C401.249 111.42 400.723 111.28 400.163 111.28C399.589 111.28 399.056 111.42 398.563 111.7C398.069 111.98 397.669 112.4 397.363 112.96C397.056 113.52 396.903 114.213 396.903 115.04C396.903 115.867 397.056 116.56 397.363 117.12C397.669 117.68 398.063 118.1 398.543 118.38C399.036 118.66 399.563 118.8 400.123 118.8ZM407.439 120V110.08H408.959L409.079 111.52C409.399 110.987 409.825 110.573 410.359 110.28C410.892 109.987 411.492 109.84 412.159 109.84C412.945 109.84 413.619 110 414.179 110.32C414.752 110.64 415.192 111.127 415.499 111.78C415.845 111.18 416.319 110.707 416.919 110.36C417.532 110.013 418.192 109.84 418.899 109.84C420.085 109.84 421.032 110.2 421.739 110.92C422.445 111.627 422.799 112.72 422.799 114.2V120H421.139V114.38C421.139 113.353 420.932 112.58 420.519 112.06C420.105 111.54 419.512 111.28 418.739 111.28C417.939 111.28 417.272 111.593 416.739 112.22C416.219 112.833 415.959 113.713 415.959 114.86V120H414.279V114.38C414.279 113.353 414.072 112.58 413.659 112.06C413.245 111.54 412.652 111.28 411.879 111.28C411.092 111.28 410.432 111.593 409.899 112.22C409.379 112.833 409.119 113.713 409.119 114.86V120H407.439ZM425.329 120V110.08H426.849L426.969 111.52C427.289 110.987 427.716 110.573 428.249 110.28C428.783 109.987 429.383 109.84 430.049 109.84C430.836 109.84 431.509 110 432.069 110.32C432.643 110.64 433.083 111.127 433.389 111.78C433.736 111.18 434.209 110.707 434.809 110.36C435.423 110.013 436.083 109.84 436.789 109.84C437.976 109.84 438.923 110.2 439.629 110.92C440.336 111.627 440.689 112.72 440.689 114.2V120H439.029V114.38C439.029 113.353 438.823 112.58 438.409 112.06C437.996 111.54 437.403 111.28 436.629 111.28C435.829 111.28 435.163 111.593 434.629 112.22C434.109 112.833 433.849 113.713 433.849 114.86V120H432.169V114.38C432.169 113.353 431.963 112.58 431.549 112.06C431.136 111.54 430.543 111.28 429.769 111.28C428.983 111.28 428.323 111.593 427.789 112.22C427.269 112.833 427.009 113.713 427.009 114.86V120H425.329ZM446.84 120.24C445.667 120.24 444.733 119.887 444.04 119.18C443.347 118.46 443 117.36 443 115.88V110.08H444.68V115.7C444.68 117.767 445.527 118.8 447.22 118.8C448.087 118.8 448.8 118.493 449.36 117.88C449.933 117.253 450.22 116.367 450.22 115.22V110.08H451.9V120H450.38L450.26 118.22C449.953 118.847 449.493 119.34 448.88 119.7C448.28 120.06 447.6 120.24 446.84 120.24ZM454.665 120V110.08H456.185L456.285 111.86C456.605 111.233 457.065 110.74 457.665 110.38C458.265 110.02 458.945 109.84 459.705 109.84C460.878 109.84 461.812 110.2 462.505 110.92C463.212 111.627 463.565 112.72 463.565 114.2V120H461.885V114.38C461.885 112.313 461.032 111.28 459.325 111.28C458.472 111.28 457.758 111.593 457.185 112.22C456.625 112.833 456.345 113.713 456.345 114.86V120H454.665ZM467.13 107.88C466.797 107.88 466.517 107.773 466.29 107.56C466.077 107.333 465.97 107.053 465.97 106.72C465.97 106.4 466.077 106.133 466.29 105.92C466.517 105.707 466.797 105.6 467.13 105.6C467.45 105.6 467.724 105.707 467.95 105.92C468.177 106.133 468.29 106.4 468.29 106.72C468.29 107.053 468.177 107.333 467.95 107.56C467.724 107.773 467.45 107.88 467.13 107.88ZM466.29 120V110.08H467.97V120H466.29ZM475.456 120.24C474.509 120.24 473.656 120.027 472.896 119.6C472.149 119.16 471.556 118.553 471.116 117.78C470.689 116.993 470.476 116.08 470.476 115.04C470.476 114 470.689 113.093 471.116 112.32C471.556 111.533 472.149 110.927 472.896 110.5C473.656 110.06 474.509 109.84 475.456 109.84C476.629 109.84 477.616 110.147 478.416 110.76C479.229 111.373 479.742 112.193 479.956 113.22H478.236C478.102 112.607 477.776 112.133 477.256 111.8C476.736 111.453 476.129 111.28 475.436 111.28C474.876 111.28 474.349 111.42 473.856 111.7C473.362 111.98 472.962 112.4 472.656 112.96C472.349 113.52 472.196 114.213 472.196 115.04C472.196 115.867 472.349 116.56 472.656 117.12C472.962 117.68 473.362 118.107 473.856 118.4C474.349 118.68 474.876 118.82 475.436 118.82C476.129 118.82 476.736 118.653 477.256 118.32C477.776 117.973 478.102 117.487 478.236 116.86H479.956C479.756 117.86 479.249 118.673 478.436 119.3C477.622 119.927 476.629 120.24 475.456 120.24ZM485.602 120.24C484.775 120.24 484.089 120.1 483.542 119.82C482.995 119.54 482.589 119.167 482.322 118.7C482.055 118.233 481.922 117.727 481.922 117.18C481.922 116.167 482.309 115.387 483.082 114.84C483.855 114.293 484.909 114.02 486.242 114.02H488.922V113.9C488.922 113.033 488.695 112.38 488.242 111.94C487.789 111.487 487.182 111.26 486.422 111.26C485.769 111.26 485.202 111.427 484.722 111.76C484.255 112.08 483.962 112.553 483.842 113.18H482.122C482.189 112.46 482.429 111.853 482.842 111.36C483.269 110.867 483.795 110.493 484.422 110.24C485.049 109.973 485.715 109.84 486.422 109.84C487.809 109.84 488.849 110.213 489.542 110.96C490.249 111.693 490.602 112.673 490.602 113.9V120H489.102L489.002 118.22C488.722 118.78 488.309 119.26 487.762 119.66C487.229 120.047 486.509 120.24 485.602 120.24ZM485.862 118.82C486.502 118.82 487.049 118.653 487.502 118.32C487.969 117.987 488.322 117.553 488.562 117.02C488.802 116.487 488.922 115.927 488.922 115.34V115.32H486.382C485.395 115.32 484.695 115.493 484.282 115.84C483.882 116.173 483.682 116.593 483.682 117.1C483.682 117.62 483.869 118.04 484.242 118.36C484.629 118.667 485.169 118.82 485.862 118.82ZM496.769 120C495.862 120 495.149 119.78 494.629 119.34C494.109 118.9 493.849 118.107 493.849 116.96V111.5H492.129V110.08H493.849L494.069 107.7H495.529V110.08H498.449V111.5H495.529V116.96C495.529 117.587 495.655 118.013 495.909 118.24C496.162 118.453 496.609 118.56 497.249 118.56H498.289V120H496.769ZM501.603 107.88C501.27 107.88 500.99 107.773 500.763 107.56C500.55 107.333 500.443 107.053 500.443 106.72C500.443 106.4 500.55 106.133 500.763 105.92C500.99 105.707 501.27 105.6 501.603 105.6C501.923 105.6 502.196 105.707 502.423 105.92C502.65 106.133 502.763 106.4 502.763 106.72C502.763 107.053 502.65 107.333 502.423 107.56C502.196 107.773 501.923 107.88 501.603 107.88ZM500.763 120V110.08H502.443V120H500.763ZM509.888 120.24C508.955 120.24 508.115 120.027 507.368 119.6C506.622 119.173 506.028 118.573 505.588 117.8C505.162 117.013 504.948 116.093 504.948 115.04C504.948 113.987 505.168 113.073 505.608 112.3C506.048 111.513 506.642 110.907 507.388 110.48C508.148 110.053 508.995 109.84 509.928 109.84C510.862 109.84 511.702 110.053 512.448 110.48C513.195 110.907 513.782 111.513 514.208 112.3C514.648 113.073 514.868 113.987 514.868 115.04C514.868 116.093 514.648 117.013 514.208 117.8C513.768 118.573 513.168 119.173 512.408 119.6C511.662 120.027 510.822 120.24 509.888 120.24ZM509.888 118.8C510.462 118.8 510.995 118.66 511.488 118.38C511.982 118.1 512.382 117.68 512.688 117.12C512.995 116.56 513.148 115.867 513.148 115.04C513.148 114.213 512.995 113.52 512.688 112.96C512.395 112.4 512.002 111.98 511.508 111.7C511.015 111.42 510.488 111.28 509.928 111.28C509.355 111.28 508.822 111.42 508.328 111.7C507.835 111.98 507.435 112.4 507.128 112.96C506.822 113.52 506.668 114.213 506.668 115.04C506.668 115.867 506.822 116.56 507.128 117.12C507.435 117.68 507.828 118.1 508.308 118.38C508.802 118.66 509.328 118.8 509.888 118.8ZM517.204 120V110.08H518.724L518.824 111.86C519.144 111.233 519.604 110.74 520.204 110.38C520.804 110.02 521.484 109.84 522.244 109.84C523.418 109.84 524.351 110.2 525.044 110.92C525.751 111.627 526.104 112.72 526.104 114.2V120H524.424V114.38C524.424 112.313 523.571 111.28 521.864 111.28C521.011 111.28 520.298 111.593 519.724 112.22C519.164 112.833 518.884 113.713 518.884 114.86V120H517.204Z" fill="white"/>
</svg>
