<svg width="25" height="34" viewBox="0 0 25 34" fill="none" xmlns="http://www.w3.org/2000/svg">
<path d="M24.352 25.4891L22.7573 23.6434V13.2213C22.7573 9.52995 20.1562 6.38611 16.4575 5.04491C16.5255 4.74212 16.5601 4.4326 16.5606 4.12206C16.5606 3.02882 16.1326 1.98036 15.3707 1.20732C14.6089 0.434287 13.5756 0 12.4982 0C11.4207 0 10.3874 0.434287 9.62559 1.20732C8.86373 1.98036 8.43573 3.02882 8.43573 4.12206C8.43672 4.43054 8.47129 4.73797 8.53881 5.03875C4.84017 6.37996 2.23899 9.54226 2.23899 13.2152V23.6311L0.644333 25.4768C0.317149 25.8484 0.103427 26.3085 0.0291529 26.8011C-0.0451209 27.2937 0.0232536 27.7976 0.225962 28.2515C0.472869 28.772 0.861713 29.2099 1.34639 29.513C1.83107 29.8161 2.39126 29.9719 2.96053 29.9618H7.72632C7.93017 31.0952 8.5194 32.1201 9.39136 32.858C10.2633 33.5959 11.3628 34 12.4982 34C13.6336 34 14.733 33.5959 15.605 32.858C16.4769 32.1201 17.0662 31.0952 17.27 29.9618H22.0358C22.6025 29.9741 23.1608 29.822 23.6453 29.5234C24.1297 29.2248 24.52 28.7921 24.7704 28.2761C24.9757 27.8207 25.0454 27.3143 24.9711 26.8192C24.8968 26.3241 24.6816 25.8618 24.352 25.4891ZM11.4674 4.12206C11.4674 3.84467 11.576 3.57864 11.7693 3.3825C11.9626 3.18635 12.2248 3.07616 12.4982 3.07616C12.7715 3.07616 13.0337 3.18635 13.227 3.3825C13.4203 3.57864 13.5289 3.84467 13.5289 4.12206C13.5288 4.21556 13.5165 4.30864 13.4926 4.39891C13.1651 4.36815 12.8317 4.34969 12.4982 4.34969C12.1647 4.34969 11.8312 4.34969 11.5038 4.39891C11.4798 4.30864 11.4676 4.21556 11.4674 4.12206ZM12.4982 31.0016C12.1576 31.0005 11.8242 30.9026 11.5359 30.7187C11.2475 30.5349 11.0158 30.2727 10.8671 29.9618H14.1292C13.9805 30.2727 13.7488 30.5349 13.4605 30.7187C13.1721 30.9026 12.8387 31.0005 12.4982 31.0016ZM3.47591 26.8857L4.61582 25.5322C5.03524 25.0591 5.26835 24.4458 5.27066 23.8095V13.2213C5.27066 10.0283 8.51455 7.43201 12.4982 7.43201C16.4818 7.43201 19.7257 10.0283 19.7257 13.2213V23.8095C19.728 24.4458 19.9611 25.0591 20.3805 25.5322L21.5204 26.8857H3.47591Z" fill="white"/>
</svg>
