<svg width="229" height="229" viewBox="0 0 229 229" fill="none" xmlns="http://www.w3.org/2000/svg">
<path fill-rule="evenodd" clip-rule="evenodd" d="M114.321 0C51.1829 0 0 51.1829 0 114.321C0 177.459 51.1829 228.642 114.321 228.642C177.459 228.642 228.642 177.459 228.642 114.321C228.642 51.1829 177.459 0 114.321 0M114.321 19.9688C166.347 19.9688 208.673 62.2955 208.673 114.321C208.673 166.347 166.347 208.673 114.321 208.673C62.2955 208.673 19.9687 166.347 19.9687 114.321C19.9687 62.2955 62.2955 19.9688 114.321 19.9688" fill="#863AAC"/>
<path fill-rule="evenodd" clip-rule="evenodd" d="M114.321 31.2242C68.4288 31.2242 31.2246 68.4285 31.2246 114.321C31.2246 160.214 68.4288 197.418 114.321 197.418C160.214 197.418 197.418 160.214 197.418 114.321C197.418 68.4285 160.214 31.2242 114.321 31.2242M114.321 51.3689C149.034 51.3689 177.274 79.6088 177.274 114.321C177.274 149.033 149.034 177.273 114.321 177.273C79.6091 177.273 51.3693 149.033 51.3693 114.321C51.3693 79.6088 79.6091 51.3689 114.321 51.3689" fill="#4339F2"/>
<path fill-rule="evenodd" clip-rule="evenodd" d="M114.321 62.4485C85.672 62.4485 62.4482 85.6723 62.4482 114.321C62.4482 142.97 85.672 166.194 114.321 166.194C142.97 166.194 166.193 142.97 166.193 114.321C166.193 85.6723 142.97 62.4485 114.321 62.4485M114.321 82.5932C131.816 82.5932 146.049 96.8264 146.049 114.321C146.049 131.816 131.816 146.049 114.321 146.049C96.8262 146.049 82.593 131.816 82.593 114.321C82.593 96.8264 96.8262 82.5932 114.321 82.5932" fill="#59BFA3"/>
</svg>
