<svg width="1479" height="69" viewBox="0 0 1479 69" fill="none" xmlns="http://www.w3.org/2000/svg">
<rect x="4" y="16.7023" width="1474.84" height="4.15267" rx="2" fill="#E7E7E7"/>
<rect x="4" y="16" width="294.968" height="5" rx="2" fill="url(#paint0_linear_111_18)"/>
<g filter="url(#filter0_dd_111_18)">
<circle cx="14.3817" cy="18.3817" r="10.3817" fill="#A1519A"/>
</g>
<path fill-rule="evenodd" clip-rule="evenodd" d="M18.7101 15.4461C18.502 15.2275 18.1753 15.2092 17.9475 15.3914L17.8879 15.4461L12.8728 20.714L10.1833 17.8889C9.95622 17.6504 9.58811 17.6504 9.36107 17.8889C9.15296 18.1075 9.13561 18.4506 9.30905 18.6899L9.36107 18.7525L12.4617 22.0095C12.6699 22.2281 12.9965 22.2463 13.2244 22.0641L13.2839 22.0095L18.7101 16.3097C18.9371 16.0712 18.9371 15.6846 18.7101 15.4461Z" fill="white"/>
<g filter="url(#filter1_dd_111_18)">
<circle cx="879.382" cy="18.3817" r="10.3817" fill="white"/>
</g>
<g filter="url(#filter2_dd_111_18)">
<circle cx="1174.38" cy="18.3817" r="10.3817" fill="white"/>
</g>
<g filter="url(#filter3_dd_111_18)">
<circle cx="584.382" cy="18.3817" r="10.3817" fill="white"/>
</g>
<g filter="url(#filter4_dd_111_18)">
<circle cx="309.382" cy="18.3817" r="10.3817" fill="white"/>
</g>
<path d="M5.184 64V52.8H6.528L12.496 61.776V52.8H13.84V64H12.496L6.528 55.024V64H5.184ZM19.7033 64.192C18.9459 64.192 18.2739 64.0213 17.6873 63.68C17.1006 63.328 16.6366 62.8427 16.2953 62.224C15.9646 61.6053 15.7993 60.8747 15.7993 60.032C15.7993 59.2 15.9646 58.4747 16.2953 57.856C16.6259 57.2267 17.0846 56.7413 17.6713 56.4C18.2686 56.048 18.9566 55.872 19.7352 55.872C20.5033 55.872 21.1646 56.048 21.7193 56.4C22.2846 56.7413 22.7166 57.1947 23.0153 57.76C23.3139 58.3253 23.4633 58.9333 23.4633 59.584C23.4633 59.7013 23.4579 59.8187 23.4473 59.936C23.4473 60.0533 23.4473 60.1867 23.4473 60.336H17.1273C17.1593 60.944 17.2979 61.4507 17.5433 61.856C17.7993 62.2507 18.1139 62.5493 18.4873 62.752C18.8713 62.9547 19.2766 63.056 19.7033 63.056C20.2579 63.056 20.7219 62.928 21.0953 62.672C21.4686 62.416 21.7406 62.0693 21.9113 61.632H23.2393C23.0259 62.368 22.6153 62.9813 22.0073 63.472C21.4099 63.952 20.6419 64.192 19.7033 64.192ZM19.7033 57.008C19.0633 57.008 18.4926 57.2053 17.9913 57.6C17.5006 57.984 17.2179 58.5493 17.1432 59.296H22.1353C22.1033 58.5813 21.8579 58.0213 21.3993 57.616C20.9406 57.2107 20.3753 57.008 19.7033 57.008ZM26.5321 64L24.2121 56.064H25.5561L27.2361 62.288L29.0921 56.064H30.6121L32.4841 62.288L34.1481 56.064H35.5081L33.1881 64H31.8121L29.8601 57.456L27.9081 64H26.5321Z" fill="#A1519A"/>
<path d="M575.184 63.8855V52.6855H576.528V63.8855H575.184ZM578.823 63.8855V55.9495H580.039L580.119 57.3735C580.375 56.8722 580.743 56.4775 581.223 56.1895C581.703 55.9015 582.247 55.7575 582.855 55.7575C583.793 55.7575 584.54 56.0455 585.095 56.6215C585.66 57.1868 585.943 58.0615 585.943 59.2455V63.8855H584.599V59.3895C584.599 57.7362 583.916 56.9095 582.551 56.9095C581.868 56.9095 581.297 57.1602 580.839 57.6615C580.391 58.1522 580.167 58.8562 580.167 59.7735V63.8855H578.823ZM591.115 63.8855C590.39 63.8855 589.819 63.7095 589.403 63.3575C588.987 63.0055 588.779 62.3708 588.779 61.4535V57.0855H587.403V55.9495H588.779L588.955 54.0455H590.123V55.9495H592.459V57.0855H590.123V61.4535C590.123 61.9548 590.224 62.2962 590.427 62.4775C590.63 62.6482 590.987 62.7335 591.499 62.7335H592.331V63.8855H591.115ZM597.516 64.0775C596.758 64.0775 596.086 63.9068 595.5 63.5655C594.913 63.2135 594.449 62.7282 594.108 62.1095C593.777 61.4908 593.612 60.7602 593.612 59.9175C593.612 59.0855 593.777 58.3602 594.108 57.7415C594.438 57.1122 594.897 56.6268 595.484 56.2855C596.081 55.9335 596.769 55.7575 597.548 55.7575C598.316 55.7575 598.977 55.9335 599.532 56.2855C600.097 56.6268 600.529 57.0802 600.828 57.6455C601.126 58.2108 601.276 58.8188 601.276 59.4695C601.276 59.5868 601.27 59.7042 601.26 59.8215C601.26 59.9388 601.26 60.0722 601.26 60.2215H594.94C594.972 60.8295 595.11 61.3362 595.356 61.7415C595.612 62.1362 595.926 62.4348 596.3 62.6375C596.684 62.8402 597.089 62.9415 597.516 62.9415C598.07 62.9415 598.534 62.8135 598.908 62.5575C599.281 62.3015 599.553 61.9548 599.724 61.5175H601.052C600.838 62.2535 600.428 62.8668 599.82 63.3575C599.222 63.8375 598.454 64.0775 597.516 64.0775ZM597.516 56.8935C596.876 56.8935 596.305 57.0908 595.804 57.4855C595.313 57.8695 595.03 58.4348 594.956 59.1815H599.948C599.916 58.4668 599.67 57.9068 599.212 57.5015C598.753 57.0962 598.188 56.8935 597.516 56.8935ZM603.057 63.8855V55.9495H604.273L604.385 57.4695C604.63 56.9468 605.004 56.5308 605.505 56.2215C606.006 55.9122 606.625 55.7575 607.361 55.7575V57.1655H606.993C606.524 57.1655 606.092 57.2508 605.697 57.4215C605.302 57.5815 604.988 57.8588 604.753 58.2535C604.518 58.6482 604.401 59.1922 604.401 59.8855V63.8855H603.057ZM612.141 64.0775C611.383 64.0775 610.711 63.9068 610.125 63.5655C609.538 63.2135 609.074 62.7282 608.733 62.1095C608.402 61.4908 608.237 60.7602 608.237 59.9175C608.237 59.0855 608.402 58.3602 608.733 57.7415C609.063 57.1122 609.522 56.6268 610.109 56.2855C610.706 55.9335 611.394 55.7575 612.173 55.7575C612.941 55.7575 613.602 55.9335 614.157 56.2855C614.722 56.6268 615.154 57.0802 615.453 57.6455C615.751 58.2108 615.901 58.8188 615.901 59.4695C615.901 59.5868 615.895 59.7042 615.885 59.8215C615.885 59.9388 615.885 60.0722 615.885 60.2215H609.565C609.597 60.8295 609.735 61.3362 609.981 61.7415C610.237 62.1362 610.551 62.4348 610.925 62.6375C611.309 62.8402 611.714 62.9415 612.141 62.9415C612.695 62.9415 613.159 62.8135 613.533 62.5575C613.906 62.3015 614.178 61.9548 614.349 61.5175H615.677C615.463 62.2535 615.053 62.8668 614.445 63.3575C613.847 63.8375 613.079 64.0775 612.141 64.0775ZM612.141 56.8935C611.501 56.8935 610.93 57.0908 610.429 57.4855C609.938 57.8695 609.655 58.4348 609.581 59.1815H614.573C614.541 58.4668 614.295 57.9068 613.837 57.5015C613.378 57.0962 612.813 56.8935 612.141 56.8935ZM620.722 64.0775C619.773 64.0775 618.983 63.8375 618.354 63.3575C617.725 62.8775 617.357 62.2268 617.25 61.4055H618.626C618.711 61.8215 618.93 62.1842 619.282 62.4935C619.645 62.7922 620.13 62.9415 620.738 62.9415C621.303 62.9415 621.719 62.8242 621.986 62.5895C622.253 62.3442 622.386 62.0562 622.386 61.7255C622.386 61.2455 622.21 60.9255 621.858 60.7655C621.517 60.6055 621.031 60.4615 620.402 60.3335C619.975 60.2482 619.549 60.1255 619.122 59.9655C618.695 59.8055 618.338 59.5815 618.05 59.2935C617.762 58.9948 617.618 58.6055 617.618 58.1255C617.618 57.4322 617.874 56.8668 618.386 56.4295C618.909 55.9815 619.613 55.7575 620.498 55.7575C621.341 55.7575 622.029 55.9708 622.562 56.3975C623.106 56.8135 623.421 57.4108 623.506 58.1895H622.178C622.125 57.7842 621.949 57.4695 621.65 57.2455C621.362 57.0108 620.973 56.8935 620.482 56.8935C620.002 56.8935 619.629 56.9948 619.362 57.1975C619.106 57.4002 618.978 57.6668 618.978 57.9975C618.978 58.3175 619.143 58.5682 619.474 58.7495C619.815 58.9308 620.274 59.0855 620.85 59.2135C621.341 59.3202 621.805 59.4535 622.242 59.6135C622.69 59.7628 623.053 59.9922 623.33 60.3015C623.618 60.6002 623.762 61.0375 623.762 61.6135C623.773 62.3282 623.501 62.9202 622.946 63.3895C622.402 63.8482 621.661 64.0775 620.722 64.0775ZM628.459 63.8855C627.733 63.8855 627.163 63.7095 626.747 63.3575C626.331 63.0055 626.123 62.3708 626.123 61.4535V57.0855H624.747V55.9495H626.123L626.299 54.0455H627.467V55.9495H629.803V57.0855H627.467V61.4535C627.467 61.9548 627.568 62.2962 627.771 62.4775C627.973 62.6482 628.331 62.7335 628.843 62.7335H629.675V63.8855H628.459ZM634.86 64.0775C634.102 64.0775 633.43 63.9068 632.844 63.5655C632.257 63.2135 631.793 62.7282 631.452 62.1095C631.121 61.4908 630.956 60.7602 630.956 59.9175C630.956 59.0855 631.121 58.3602 631.452 57.7415C631.782 57.1122 632.241 56.6268 632.828 56.2855C633.425 55.9335 634.113 55.7575 634.891 55.7575C635.66 55.7575 636.321 55.9335 636.876 56.2855C637.441 56.6268 637.873 57.0802 638.172 57.6455C638.47 58.2108 638.62 58.8188 638.62 59.4695C638.62 59.5868 638.614 59.7042 638.604 59.8215C638.604 59.9388 638.604 60.0722 638.604 60.2215H632.284C632.316 60.8295 632.454 61.3362 632.7 61.7415C632.956 62.1362 633.27 62.4348 633.644 62.6375C634.028 62.8402 634.433 62.9415 634.86 62.9415C635.414 62.9415 635.878 62.8135 636.252 62.5575C636.625 62.3015 636.897 61.9548 637.068 61.5175H638.396C638.182 62.2535 637.772 62.8668 637.164 63.3575C636.566 63.8375 635.798 64.0775 634.86 64.0775ZM634.86 56.8935C634.22 56.8935 633.649 57.0908 633.148 57.4855C632.657 57.8695 632.374 58.4348 632.299 59.1815H637.292C637.26 58.4668 637.014 57.9068 636.556 57.5015C636.097 57.0962 635.532 56.8935 634.86 56.8935ZM644.001 64.0775C643.212 64.0775 642.518 63.8962 641.921 63.5335C641.334 63.1708 640.876 62.6748 640.545 62.0455C640.225 61.4162 640.065 60.7015 640.065 59.9015C640.065 59.1015 640.23 58.3922 640.561 57.7735C640.892 57.1442 641.35 56.6535 641.937 56.3015C642.524 55.9388 643.217 55.7575 644.017 55.7575C644.668 55.7575 645.244 55.8908 645.745 56.1575C646.246 56.4242 646.636 56.7975 646.913 57.2775V52.3655H648.257V63.8855H647.041L646.913 62.5735C646.657 62.9575 646.289 63.3042 645.809 63.6135C645.329 63.9228 644.726 64.0775 644.001 64.0775ZM644.145 62.9095C644.678 62.9095 645.148 62.7868 645.553 62.5415C645.969 62.2855 646.289 61.9335 646.513 61.4855C646.748 61.0375 646.865 60.5148 646.865 59.9175C646.865 59.3202 646.748 58.7975 646.513 58.3495C646.289 57.9015 645.969 57.5548 645.553 57.3095C645.148 57.0535 644.678 56.9255 644.145 56.9255C643.622 56.9255 643.153 57.0535 642.737 57.3095C642.332 57.5548 642.012 57.9015 641.777 58.3495C641.553 58.7975 641.441 59.3202 641.441 59.9175C641.441 60.5148 641.553 61.0375 641.777 61.4855C642.012 61.9335 642.332 62.2855 642.737 62.5415C643.153 62.7868 643.622 62.9095 644.145 62.9095Z" fill="black"/>
<path d="M874.232 64.0775C873.464 64.0775 872.765 63.9282 872.136 63.6295C871.517 63.3202 871.021 62.8455 870.648 62.2055C870.275 61.5655 870.088 60.7495 870.088 59.7575V52.6855H871.432V59.7735C871.432 60.8615 871.693 61.6508 872.216 62.1415C872.739 62.6322 873.421 62.8775 874.264 62.8775C875.107 62.8775 875.784 62.6322 876.296 62.1415C876.808 61.6508 877.064 60.8615 877.064 59.7735V52.6855H878.408V59.7575C878.408 60.7495 878.221 61.5655 877.848 62.2055C877.475 62.8455 876.973 63.3202 876.344 63.6295C875.715 63.9282 875.011 64.0775 874.232 64.0775ZM880.604 63.8855V55.9495H881.82L881.9 57.3735C882.156 56.8722 882.524 56.4775 883.004 56.1895C883.484 55.9015 884.028 55.7575 884.636 55.7575C885.575 55.7575 886.321 56.0455 886.876 56.6215C887.441 57.1868 887.724 58.0615 887.724 59.2455V63.8855H886.38V59.3895C886.38 57.7362 885.697 56.9095 884.332 56.9095C883.649 56.9095 883.079 57.1602 882.62 57.6615C882.172 58.1522 881.948 58.8562 881.948 59.7735V63.8855H880.604ZM893.36 64.0775C892.571 64.0775 891.878 63.8962 891.28 63.5335C890.694 63.1708 890.235 62.6748 889.904 62.0455C889.584 61.4162 889.424 60.7015 889.424 59.9015C889.424 59.1015 889.59 58.3922 889.92 57.7735C890.251 57.1442 890.71 56.6535 891.296 56.3015C891.883 55.9388 892.576 55.7575 893.376 55.7575C894.027 55.7575 894.603 55.8908 895.104 56.1575C895.606 56.4242 895.995 56.7975 896.272 57.2775V52.3655H897.616V63.8855H896.4L896.272 62.5735C896.016 62.9575 895.648 63.3042 895.168 63.6135C894.688 63.9228 894.086 64.0775 893.36 64.0775ZM893.504 62.9095C894.038 62.9095 894.507 62.7868 894.912 62.5415C895.328 62.2855 895.648 61.9335 895.872 61.4855C896.107 61.0375 896.224 60.5148 896.224 59.9175C896.224 59.3202 896.107 58.7975 895.872 58.3495C895.648 57.9015 895.328 57.5548 894.912 57.3095C894.507 57.0535 894.038 56.9255 893.504 56.9255C892.982 56.9255 892.512 57.0535 892.096 57.3095C891.691 57.5548 891.371 57.9015 891.136 58.3495C890.912 58.7975 890.8 59.3202 890.8 59.9175C890.8 60.5148 890.912 61.0375 891.136 61.4855C891.371 61.9335 891.691 62.2855 892.096 62.5415C892.512 62.7868 892.982 62.9095 893.504 62.9095ZM903.375 64.0775C902.618 64.0775 901.946 63.9068 901.359 63.5655C900.772 63.2135 900.308 62.7282 899.967 62.1095C899.636 61.4908 899.471 60.7602 899.471 59.9175C899.471 59.0855 899.636 58.3602 899.967 57.7415C900.298 57.1122 900.756 56.6268 901.343 56.2855C901.94 55.9335 902.628 55.7575 903.407 55.7575C904.175 55.7575 904.836 55.9335 905.391 56.2855C905.956 56.6268 906.388 57.0802 906.687 57.6455C906.986 58.2108 907.135 58.8188 907.135 59.4695C907.135 59.5868 907.13 59.7042 907.119 59.8215C907.119 59.9388 907.119 60.0722 907.119 60.2215H900.799C900.831 60.8295 900.97 61.3362 901.215 61.7415C901.471 62.1362 901.786 62.4348 902.159 62.6375C902.543 62.8402 902.948 62.9415 903.375 62.9415C903.93 62.9415 904.394 62.8135 904.767 62.5575C905.14 62.3015 905.412 61.9548 905.583 61.5175H906.911C906.698 62.2535 906.287 62.8668 905.679 63.3575C905.082 63.8375 904.314 64.0775 903.375 64.0775ZM903.375 56.8935C902.735 56.8935 902.164 57.0908 901.663 57.4855C901.172 57.8695 900.89 58.4348 900.815 59.1815H905.807C905.775 58.4668 905.53 57.9068 905.071 57.5015C904.612 57.0962 904.047 56.8935 903.375 56.8935ZM908.917 63.8855V55.9495H910.133L910.245 57.4695C910.49 56.9468 910.863 56.5308 911.365 56.2215C911.866 55.9122 912.485 55.7575 913.221 55.7575V57.1655H912.853C912.383 57.1655 911.951 57.2508 911.557 57.4215C911.162 57.5815 910.847 57.8588 910.613 58.2535C910.378 58.6482 910.261 59.1922 910.261 59.8855V63.8855H908.917ZM919.043 63.8855V52.6855H922.659C923.534 52.6855 924.249 52.8295 924.803 53.1175C925.358 53.4055 925.769 53.8002 926.035 54.3015C926.302 54.8028 926.435 55.3575 926.435 55.9655C926.435 56.6695 926.243 57.3042 925.859 57.8695C925.486 58.4348 924.899 58.8348 924.099 59.0695L926.547 63.8855H924.963L922.691 59.2615H922.595H920.387V63.8855H919.043ZM920.387 58.2055H922.563C923.427 58.2055 924.057 57.9975 924.451 57.5815C924.846 57.1655 925.043 56.6322 925.043 55.9815C925.043 55.3202 924.846 54.7975 924.451 54.4135C924.067 54.0188 923.433 53.8215 922.547 53.8215H920.387V58.2055ZM931.531 64.0775C930.774 64.0775 930.102 63.9068 929.515 63.5655C928.929 63.2135 928.465 62.7282 928.123 62.1095C927.793 61.4908 927.627 60.7602 927.627 59.9175C927.627 59.0855 927.793 58.3602 928.123 57.7415C928.454 57.1122 928.913 56.6268 929.499 56.2855C930.097 55.9335 930.785 55.7575 931.563 55.7575C932.331 55.7575 932.993 55.9335 933.547 56.2855C934.113 56.6268 934.545 57.0802 934.843 57.6455C935.142 58.2108 935.291 58.8188 935.291 59.4695C935.291 59.5868 935.286 59.7042 935.275 59.8215C935.275 59.9388 935.275 60.0722 935.275 60.2215H928.955C928.987 60.8295 929.126 61.3362 929.371 61.7415C929.627 62.1362 929.942 62.4348 930.315 62.6375C930.699 62.8402 931.105 62.9415 931.531 62.9415C932.086 62.9415 932.55 62.8135 932.923 62.5575C933.297 62.3015 933.569 61.9548 933.739 61.5175H935.067C934.854 62.2535 934.443 62.8668 933.835 63.3575C933.238 63.8375 932.47 64.0775 931.531 64.0775ZM931.531 56.8935C930.891 56.8935 930.321 57.0908 929.819 57.4855C929.329 57.8695 929.046 58.4348 928.971 59.1815H933.963C933.931 58.4668 933.686 57.9068 933.227 57.5015C932.769 57.0962 932.203 56.8935 931.531 56.8935ZM939.048 63.8855L936.04 55.9495H937.448L939.832 62.5895L942.232 55.9495H943.608L940.6 63.8855H939.048ZM945.92 54.1895C945.653 54.1895 945.429 54.1042 945.248 53.9335C945.077 53.7522 944.992 53.5282 944.992 53.2615C944.992 53.0055 945.077 52.7922 945.248 52.6215C945.429 52.4508 945.653 52.3655 945.92 52.3655C946.176 52.3655 946.395 52.4508 946.576 52.6215C946.757 52.7922 946.848 53.0055 946.848 53.2615C946.848 53.5282 946.757 53.7522 946.576 53.9335C946.395 54.1042 946.176 54.1895 945.92 54.1895ZM945.248 63.8855V55.9495H946.592V63.8855H945.248ZM952.5 64.0775C951.743 64.0775 951.071 63.9068 950.484 63.5655C949.897 63.2135 949.433 62.7282 949.092 62.1095C948.761 61.4908 948.596 60.7602 948.596 59.9175C948.596 59.0855 948.761 58.3602 949.092 57.7415C949.423 57.1122 949.881 56.6268 950.468 56.2855C951.065 55.9335 951.753 55.7575 952.532 55.7575C953.3 55.7575 953.961 55.9335 954.516 56.2855C955.081 56.6268 955.513 57.0802 955.812 57.6455C956.111 58.2108 956.26 58.8188 956.26 59.4695C956.26 59.5868 956.255 59.7042 956.244 59.8215C956.244 59.9388 956.244 60.0722 956.244 60.2215H949.924C949.956 60.8295 950.095 61.3362 950.34 61.7415C950.596 62.1362 950.911 62.4348 951.284 62.6375C951.668 62.8402 952.073 62.9415 952.5 62.9415C953.055 62.9415 953.519 62.8135 953.892 62.5575C954.265 62.3015 954.537 61.9548 954.708 61.5175H956.036C955.823 62.2535 955.412 62.8668 954.804 63.3575C954.207 63.8375 953.439 64.0775 952.5 64.0775ZM952.5 56.8935C951.86 56.8935 951.289 57.0908 950.788 57.4855C950.297 57.8695 950.015 58.4348 949.94 59.1815H954.932C954.9 58.4668 954.655 57.9068 954.196 57.5015C953.737 57.0962 953.172 56.8935 952.5 56.8935ZM959.329 63.8855L957.009 55.9495H958.353L960.033 62.1735L961.889 55.9495H963.409L965.281 62.1735L966.945 55.9495H968.305L965.985 63.8855H964.609L962.657 57.3415L960.705 63.8855H959.329Z" fill="black"/>
<path d="M1170.1 64.0775C1169 64.0775 1168.05 63.8375 1167.25 63.3575C1166.46 62.8668 1165.85 62.1895 1165.41 61.3255C1164.97 60.4508 1164.75 59.4375 1164.75 58.2855C1164.75 57.1442 1164.97 56.1415 1165.41 55.2775C1165.85 54.4028 1166.46 53.7202 1167.25 53.2295C1168.05 52.7388 1169 52.4935 1170.1 52.4935C1171.38 52.4935 1172.42 52.8028 1173.22 53.4215C1174.03 54.0295 1174.54 54.8828 1174.77 55.9815H1173.28C1173.11 55.2882 1172.76 54.7335 1172.22 54.3175C1171.7 53.8908 1170.99 53.6775 1170.1 53.6775C1169.3 53.6775 1168.6 53.8642 1168 54.2375C1167.4 54.6002 1166.94 55.1282 1166.61 55.8215C1166.29 56.5042 1166.13 57.3255 1166.13 58.2855C1166.13 59.2455 1166.29 60.0722 1166.61 60.7655C1166.94 61.4482 1167.4 61.9762 1168 62.3495C1168.6 62.7122 1169.3 62.8935 1170.1 62.8935C1170.99 62.8935 1171.7 62.6908 1172.22 62.2855C1172.76 61.8695 1173.11 61.3202 1173.28 60.6375H1174.77C1174.54 61.7148 1174.03 62.5575 1173.22 63.1655C1172.42 63.7735 1171.38 64.0775 1170.1 64.0775ZM1180.24 64.0775C1179.49 64.0775 1178.82 63.9068 1178.22 63.5655C1177.62 63.2242 1177.15 62.7442 1176.8 62.1255C1176.45 61.4962 1176.28 60.7602 1176.28 59.9175C1176.28 59.0748 1176.46 58.3442 1176.81 57.7255C1177.16 57.0962 1177.64 56.6108 1178.24 56.2695C1178.84 55.9282 1179.52 55.7575 1180.27 55.7575C1181.01 55.7575 1181.69 55.9282 1182.28 56.2695C1182.88 56.6108 1183.35 57.0962 1183.69 57.7255C1184.04 58.3442 1184.22 59.0748 1184.22 59.9175C1184.22 60.7602 1184.04 61.4962 1183.69 62.1255C1183.34 62.7442 1182.86 63.2242 1182.25 63.5655C1181.65 63.9068 1180.98 64.0775 1180.24 64.0775ZM1180.24 62.9255C1180.69 62.9255 1181.12 62.8135 1181.52 62.5895C1181.91 62.3655 1182.23 62.0295 1182.48 61.5815C1182.72 61.1335 1182.84 60.5788 1182.84 59.9175C1182.84 59.2562 1182.72 58.7015 1182.48 58.2535C1182.24 57.8055 1181.93 57.4695 1181.53 57.2455C1181.14 57.0215 1180.72 56.9095 1180.27 56.9095C1179.81 56.9095 1179.38 57.0215 1178.99 57.2455C1178.59 57.4695 1178.27 57.8055 1178.03 58.2535C1177.78 58.7015 1177.66 59.2562 1177.66 59.9175C1177.66 60.5788 1177.78 61.1335 1178.03 61.5815C1178.27 62.0295 1178.59 62.3655 1178.97 62.5895C1179.37 62.8135 1179.79 62.9255 1180.24 62.9255ZM1186.09 63.8855V55.9495H1187.3L1187.38 57.3735C1187.64 56.8722 1188.01 56.4775 1188.49 56.1895C1188.97 55.9015 1189.51 55.7575 1190.12 55.7575C1191.06 55.7575 1191.81 56.0455 1192.36 56.6215C1192.93 57.1868 1193.21 58.0615 1193.21 59.2455V63.8855H1191.86V59.3895C1191.86 57.7362 1191.18 56.9095 1189.82 56.9095C1189.13 56.9095 1188.56 57.1602 1188.1 57.6615C1187.66 58.1522 1187.43 58.8562 1187.43 59.7735V63.8855H1186.09ZM1197.38 63.8855L1194.37 55.9495H1195.78L1198.16 62.5895L1200.56 55.9495H1201.94L1198.93 63.8855H1197.38ZM1206.59 64.0775C1205.84 64.0775 1205.16 63.9068 1204.58 63.5655C1203.99 63.2135 1203.53 62.7282 1203.19 62.1095C1202.86 61.4908 1202.69 60.7602 1202.69 59.9175C1202.69 59.0855 1202.86 58.3602 1203.19 57.7415C1203.52 57.1122 1203.98 56.6268 1204.56 56.2855C1205.16 55.9335 1205.85 55.7575 1206.63 55.7575C1207.39 55.7575 1208.06 55.9335 1208.61 56.2855C1209.18 56.6268 1209.61 57.0802 1209.91 57.6455C1210.2 58.2108 1210.35 58.8188 1210.35 59.4695C1210.35 59.5868 1210.35 59.7042 1210.34 59.8215C1210.34 59.9388 1210.34 60.0722 1210.34 60.2215H1204.02C1204.05 60.8295 1204.19 61.3362 1204.43 61.7415C1204.69 62.1362 1205 62.4348 1205.38 62.6375C1205.76 62.8402 1206.17 62.9415 1206.59 62.9415C1207.15 62.9415 1207.61 62.8135 1207.99 62.5575C1208.36 62.3015 1208.63 61.9548 1208.8 61.5175H1210.13C1209.92 62.2535 1209.51 62.8668 1208.9 63.3575C1208.3 63.8375 1207.53 64.0775 1206.59 64.0775ZM1206.59 56.8935C1205.95 56.8935 1205.38 57.0908 1204.88 57.4855C1204.39 57.8695 1204.11 58.4348 1204.03 59.1815H1209.03C1208.99 58.4668 1208.75 57.9068 1208.29 57.5015C1207.83 57.0962 1207.27 56.8935 1206.59 56.8935ZM1212.14 63.8855V55.9495H1213.35L1213.46 57.4695C1213.71 56.9468 1214.08 56.5308 1214.58 56.2215C1215.08 55.9122 1215.7 55.7575 1216.44 55.7575V57.1655H1216.07C1215.6 57.1655 1215.17 57.2508 1214.78 57.4215C1214.38 57.5815 1214.07 57.8588 1213.83 58.2535C1213.6 58.6482 1213.48 59.1922 1213.48 59.8855V63.8855H1212.14ZM1221.08 63.8855C1220.36 63.8855 1219.79 63.7095 1219.37 63.3575C1218.96 63.0055 1218.75 62.3708 1218.75 61.4535V57.0855H1217.37V55.9495H1218.75L1218.92 54.0455H1220.09V55.9495H1222.43V57.0855H1220.09V61.4535C1220.09 61.9548 1220.19 62.2962 1220.4 62.4775C1220.6 62.6482 1220.96 62.7335 1221.47 62.7335H1222.3V63.8855H1221.08ZM1227.48 64.0775C1226.73 64.0775 1226.06 63.9068 1225.47 63.5655C1224.88 63.2135 1224.42 62.7282 1224.08 62.1095C1223.75 61.4908 1223.58 60.7602 1223.58 59.9175C1223.58 59.0855 1223.75 58.3602 1224.08 57.7415C1224.41 57.1122 1224.87 56.6268 1225.45 56.2855C1226.05 55.9335 1226.74 55.7575 1227.52 55.7575C1228.28 55.7575 1228.95 55.9335 1229.5 56.2855C1230.07 56.6268 1230.5 57.0802 1230.8 57.6455C1231.1 58.2108 1231.24 58.8188 1231.24 59.4695C1231.24 59.5868 1231.24 59.7042 1231.23 59.8215C1231.23 59.9388 1231.23 60.0722 1231.23 60.2215H1224.91C1224.94 60.8295 1225.08 61.3362 1225.32 61.7415C1225.58 62.1362 1225.9 62.4348 1226.27 62.6375C1226.65 62.8402 1227.06 62.9415 1227.48 62.9415C1228.04 62.9415 1228.5 62.8135 1228.88 62.5575C1229.25 62.3015 1229.52 61.9548 1229.69 61.5175H1231.02C1230.81 62.2535 1230.4 62.8668 1229.79 63.3575C1229.19 63.8375 1228.42 64.0775 1227.48 64.0775ZM1227.48 56.8935C1226.84 56.8935 1226.27 57.0908 1225.77 57.4855C1225.28 57.8695 1225 58.4348 1224.92 59.1815H1229.92C1229.88 58.4668 1229.64 57.9068 1229.18 57.5015C1228.72 57.0962 1228.16 56.8935 1227.48 56.8935ZM1236.63 64.0775C1235.84 64.0775 1235.14 63.8962 1234.55 63.5335C1233.96 63.1708 1233.5 62.6748 1233.17 62.0455C1232.85 61.4162 1232.69 60.7015 1232.69 59.9015C1232.69 59.1015 1232.86 58.3922 1233.19 57.7735C1233.52 57.1442 1233.98 56.6535 1234.56 56.3015C1235.15 55.9388 1235.84 55.7575 1236.64 55.7575C1237.29 55.7575 1237.87 55.8908 1238.37 56.1575C1238.87 56.4242 1239.26 56.7975 1239.54 57.2775V52.3655H1240.88V63.8855H1239.67L1239.54 62.5735C1239.28 62.9575 1238.91 63.3042 1238.43 63.6135C1237.95 63.9228 1237.35 64.0775 1236.63 64.0775ZM1236.77 62.9095C1237.3 62.9095 1237.77 62.7868 1238.18 62.5415C1238.59 62.2855 1238.91 61.9335 1239.14 61.4855C1239.37 61.0375 1239.49 60.5148 1239.49 59.9175C1239.49 59.3202 1239.37 58.7975 1239.14 58.3495C1238.91 57.9015 1238.59 57.5548 1238.18 57.3095C1237.77 57.0535 1237.3 56.9255 1236.77 56.9255C1236.25 56.9255 1235.78 57.0535 1235.36 57.3095C1234.96 57.5548 1234.64 57.9015 1234.4 58.3495C1234.18 58.7975 1234.07 59.3202 1234.07 59.9175C1234.07 60.5148 1234.18 61.0375 1234.4 61.4855C1234.64 61.9335 1234.96 62.2855 1235.36 62.5415C1235.78 62.7868 1236.25 62.9095 1236.77 62.9095Z" fill="black"/>
<path d="M305.096 64.0775C303.997 64.0775 303.048 63.8375 302.248 63.3575C301.459 62.8668 300.845 62.1895 300.408 61.3255C299.971 60.4508 299.752 59.4375 299.752 58.2855C299.752 57.1442 299.971 56.1415 300.408 55.2775C300.845 54.4028 301.459 53.7202 302.248 53.2295C303.048 52.7388 303.997 52.4935 305.096 52.4935C306.376 52.4935 307.416 52.8028 308.216 53.4215C309.027 54.0295 309.544 54.8828 309.768 55.9815H308.28C308.109 55.2882 307.757 54.7335 307.224 54.3175C306.701 53.8908 305.992 53.6775 305.096 53.6775C304.296 53.6775 303.597 53.8642 303 54.2375C302.403 54.6002 301.939 55.1282 301.608 55.8215C301.288 56.5042 301.128 57.3255 301.128 58.2855C301.128 59.2455 301.288 60.0722 301.608 60.7655C301.939 61.4482 302.403 61.9762 303 62.3495C303.597 62.7122 304.296 62.8935 305.096 62.8935C305.992 62.8935 306.701 62.6908 307.224 62.2855C307.757 61.8695 308.109 61.3202 308.28 60.6375H309.768C309.544 61.7148 309.027 62.5575 308.216 63.1655C307.416 63.7735 306.376 64.0775 305.096 64.0775ZM315.236 64.0775C314.489 64.0775 313.817 63.9068 313.22 63.5655C312.622 63.2242 312.148 62.7442 311.796 62.1255C311.454 61.4962 311.284 60.7602 311.284 59.9175C311.284 59.0748 311.46 58.3442 311.812 57.7255C312.164 57.0962 312.638 56.6108 313.236 56.2695C313.844 55.9282 314.521 55.7575 315.268 55.7575C316.014 55.7575 316.686 55.9282 317.284 56.2695C317.881 56.6108 318.35 57.0962 318.692 57.7255C319.044 58.3442 319.22 59.0748 319.22 59.9175C319.22 60.7602 319.044 61.4962 318.692 62.1255C318.34 62.7442 317.86 63.2242 317.252 63.5655C316.654 63.9068 315.982 64.0775 315.236 64.0775ZM315.236 62.9255C315.694 62.9255 316.121 62.8135 316.516 62.5895C316.91 62.3655 317.23 62.0295 317.476 61.5815C317.721 61.1335 317.844 60.5788 317.844 59.9175C317.844 59.2562 317.721 58.7015 317.476 58.2535C317.241 57.8055 316.926 57.4695 316.532 57.2455C316.137 57.0215 315.716 56.9095 315.268 56.9095C314.809 56.9095 314.382 57.0215 313.988 57.2455C313.593 57.4695 313.273 57.8055 313.028 58.2535C312.782 58.7015 312.66 59.2562 312.66 59.9175C312.66 60.5788 312.782 61.1335 313.028 61.5815C313.273 62.0295 313.588 62.3655 313.972 62.5895C314.366 62.8135 314.788 62.9255 315.236 62.9255ZM321.088 63.8855V55.9495H322.304L322.384 57.3735C322.64 56.8722 323.008 56.4775 323.488 56.1895C323.968 55.9015 324.512 55.7575 325.12 55.7575C326.059 55.7575 326.806 56.0455 327.36 56.6215C327.926 57.1868 328.208 58.0615 328.208 59.2455V63.8855H326.864V59.3895C326.864 57.7362 326.182 56.9095 324.816 56.9095C324.134 56.9095 323.563 57.1602 323.104 57.6615C322.656 58.1522 322.432 58.8562 322.432 59.7735V63.8855H321.088ZM333.381 63.8855C332.655 63.8855 332.085 63.7095 331.669 63.3575C331.253 63.0055 331.045 62.3708 331.045 61.4535V57.0855H329.669V55.9495H331.045L331.221 54.0455H332.389V55.9495H334.725V57.0855H332.389V61.4535C332.389 61.9548 332.49 62.2962 332.693 62.4775C332.895 62.6482 333.253 62.7335 333.765 62.7335H334.597V63.8855H333.381ZM339.072 64.0775C338.411 64.0775 337.861 63.9655 337.424 63.7415C336.987 63.5175 336.661 63.2188 336.448 62.8455C336.235 62.4722 336.128 62.0668 336.128 61.6295C336.128 60.8188 336.437 60.1948 337.056 59.7575C337.675 59.3202 338.517 59.1015 339.584 59.1015H341.728V59.0055C341.728 58.3122 341.547 57.7895 341.184 57.4375C340.821 57.0748 340.336 56.8935 339.728 56.8935C339.205 56.8935 338.752 57.0268 338.368 57.2935C337.995 57.5495 337.76 57.9282 337.664 58.4295H336.288C336.341 57.8535 336.533 57.3682 336.864 56.9735C337.205 56.5788 337.627 56.2802 338.128 56.0775C338.629 55.8642 339.163 55.7575 339.728 55.7575C340.837 55.7575 341.669 56.0562 342.224 56.6535C342.789 57.2402 343.072 58.0242 343.072 59.0055V63.8855H341.872L341.792 62.4615C341.568 62.9095 341.237 63.2935 340.8 63.6135C340.373 63.9228 339.797 64.0775 339.072 64.0775ZM339.28 62.9415C339.792 62.9415 340.229 62.8082 340.592 62.5415C340.965 62.2748 341.248 61.9282 341.44 61.5015C341.632 61.0748 341.728 60.6268 341.728 60.1575V60.1415H339.696C338.907 60.1415 338.347 60.2802 338.016 60.5575C337.696 60.8242 337.536 61.1602 337.536 61.5655C337.536 61.9815 337.685 62.3175 337.984 62.5735C338.293 62.8188 338.725 62.9415 339.28 62.9415ZM348.736 64.0775C347.979 64.0775 347.296 63.9068 346.688 63.5655C346.091 63.2135 345.616 62.7282 345.264 62.1095C344.923 61.4802 344.752 60.7495 344.752 59.9175C344.752 59.0855 344.923 58.3602 345.264 57.7415C345.616 57.1122 346.091 56.6268 346.688 56.2855C347.296 55.9335 347.979 55.7575 348.736 55.7575C349.675 55.7575 350.464 56.0028 351.104 56.4935C351.755 56.9842 352.166 57.6402 352.336 58.4615H350.96C350.854 57.9708 350.592 57.5922 350.176 57.3255C349.76 57.0482 349.275 56.9095 348.72 56.9095C348.272 56.9095 347.851 57.0215 347.456 57.2455C347.062 57.4695 346.742 57.8055 346.496 58.2535C346.251 58.7015 346.128 59.2562 346.128 59.9175C346.128 60.5788 346.251 61.1335 346.496 61.5815C346.742 62.0295 347.062 62.3708 347.456 62.6055C347.851 62.8295 348.272 62.9415 348.72 62.9415C349.275 62.9415 349.76 62.8082 350.176 62.5415C350.592 62.2642 350.854 61.8748 350.96 61.3735H352.336C352.176 62.1735 351.771 62.8242 351.12 63.3255C350.47 63.8268 349.675 64.0775 348.736 64.0775ZM357.131 63.8855C356.405 63.8855 355.835 63.7095 355.419 63.3575C355.003 63.0055 354.795 62.3708 354.795 61.4535V57.0855H353.419V55.9495H354.795L354.971 54.0455H356.139V55.9495H358.475V57.0855H356.139V61.4535C356.139 61.9548 356.24 62.2962 356.443 62.4775C356.645 62.6482 357.003 62.7335 357.515 62.7335H358.347V63.8855H357.131ZM363.531 64.0775C362.774 64.0775 362.102 63.9068 361.515 63.5655C360.929 63.2135 360.465 62.7282 360.123 62.1095C359.793 61.4908 359.627 60.7602 359.627 59.9175C359.627 59.0855 359.793 58.3602 360.123 57.7415C360.454 57.1122 360.913 56.6268 361.499 56.2855C362.097 55.9335 362.785 55.7575 363.563 55.7575C364.331 55.7575 364.993 55.9335 365.547 56.2855C366.113 56.6268 366.545 57.0802 366.843 57.6455C367.142 58.2108 367.291 58.8188 367.291 59.4695C367.291 59.5868 367.286 59.7042 367.275 59.8215C367.275 59.9388 367.275 60.0722 367.275 60.2215H360.955C360.987 60.8295 361.126 61.3362 361.371 61.7415C361.627 62.1362 361.942 62.4348 362.315 62.6375C362.699 62.8402 363.105 62.9415 363.531 62.9415C364.086 62.9415 364.55 62.8135 364.923 62.5575C365.297 62.3015 365.569 61.9548 365.739 61.5175H367.067C366.854 62.2535 366.443 62.8668 365.835 63.3575C365.238 63.8375 364.47 64.0775 363.531 64.0775ZM363.531 56.8935C362.891 56.8935 362.321 57.0908 361.819 57.4855C361.329 57.8695 361.046 58.4348 360.971 59.1815H365.963C365.931 58.4668 365.686 57.9068 365.227 57.5015C364.769 57.0962 364.203 56.8935 363.531 56.8935ZM372.673 64.0775C371.883 64.0775 371.19 63.8962 370.593 63.5335C370.006 63.1708 369.547 62.6748 369.217 62.0455C368.897 61.4162 368.737 60.7015 368.737 59.9015C368.737 59.1015 368.902 58.3922 369.233 57.7735C369.563 57.1442 370.022 56.6535 370.609 56.3015C371.195 55.9388 371.889 55.7575 372.689 55.7575C373.339 55.7575 373.915 55.8908 374.417 56.1575C374.918 56.4242 375.307 56.7975 375.585 57.2775V52.3655H376.929V63.8855H375.713L375.585 62.5735C375.329 62.9575 374.961 63.3042 374.481 63.6135C374.001 63.9228 373.398 64.0775 372.673 64.0775ZM372.817 62.9095C373.35 62.9095 373.819 62.7868 374.225 62.5415C374.641 62.2855 374.961 61.9335 375.185 61.4855C375.419 61.0375 375.537 60.5148 375.537 59.9175C375.537 59.3202 375.419 58.7975 375.185 58.3495C374.961 57.9015 374.641 57.5548 374.225 57.3095C373.819 57.0535 373.35 56.9255 372.817 56.9255C372.294 56.9255 371.825 57.0535 371.409 57.3095C371.003 57.5548 370.683 57.9015 370.449 58.3495C370.225 58.7975 370.113 59.3202 370.113 59.9175C370.113 60.5148 370.225 61.0375 370.449 61.4855C370.683 61.9335 371.003 62.2855 371.409 62.5415C371.825 62.7868 372.294 62.9095 372.817 62.9095Z" fill="black"/>
<defs>
<filter id="filter0_dd_111_18" x="0" y="0" width="28.7634" height="36.7633" filterUnits="userSpaceOnUse" color-interpolation-filters="sRGB">
<feFlood flood-opacity="0" result="BackgroundImageFix"/>
<feColorMatrix in="SourceAlpha" type="matrix" values="0 0 0 0 0 0 0 0 0 0 0 0 0 0 0 0 0 0 127 0" result="hardAlpha"/>
<feOffset dy="4"/>
<feGaussianBlur stdDeviation="2"/>
<feComposite in2="hardAlpha" operator="out"/>
<feColorMatrix type="matrix" values="0 0 0 0 0 0 0 0 0 0 0 0 0 0 0 0 0 0 0.1 0"/>
<feBlend mode="normal" in2="BackgroundImageFix" result="effect1_dropShadow_111_18"/>
<feColorMatrix in="SourceAlpha" type="matrix" values="0 0 0 0 0 0 0 0 0 0 0 0 0 0 0 0 0 0 127 0" result="hardAlpha"/>
<feOffset dy="-4"/>
<feGaussianBlur stdDeviation="2"/>
<feComposite in2="hardAlpha" operator="out"/>
<feColorMatrix type="matrix" values="0 0 0 0 0 0 0 0 0 0 0 0 0 0 0 0 0 0 0.05 0"/>
<feBlend mode="normal" in2="effect1_dropShadow_111_18" result="effect2_dropShadow_111_18"/>
<feBlend mode="normal" in="SourceGraphic" in2="effect2_dropShadow_111_18" result="shape"/>
</filter>
<filter id="filter1_dd_111_18" x="865" y="0" width="28.7634" height="36.7633" filterUnits="userSpaceOnUse" color-interpolation-filters="sRGB">
<feFlood flood-opacity="0" result="BackgroundImageFix"/>
<feColorMatrix in="SourceAlpha" type="matrix" values="0 0 0 0 0 0 0 0 0 0 0 0 0 0 0 0 0 0 127 0" result="hardAlpha"/>
<feOffset dy="4"/>
<feGaussianBlur stdDeviation="2"/>
<feComposite in2="hardAlpha" operator="out"/>
<feColorMatrix type="matrix" values="0 0 0 0 0 0 0 0 0 0 0 0 0 0 0 0 0 0 0.1 0"/>
<feBlend mode="normal" in2="BackgroundImageFix" result="effect1_dropShadow_111_18"/>
<feColorMatrix in="SourceAlpha" type="matrix" values="0 0 0 0 0 0 0 0 0 0 0 0 0 0 0 0 0 0 127 0" result="hardAlpha"/>
<feOffset dy="-4"/>
<feGaussianBlur stdDeviation="2"/>
<feComposite in2="hardAlpha" operator="out"/>
<feColorMatrix type="matrix" values="0 0 0 0 0 0 0 0 0 0 0 0 0 0 0 0 0 0 0.05 0"/>
<feBlend mode="normal" in2="effect1_dropShadow_111_18" result="effect2_dropShadow_111_18"/>
<feBlend mode="normal" in="SourceGraphic" in2="effect2_dropShadow_111_18" result="shape"/>
</filter>
<filter id="filter2_dd_111_18" x="1160" y="0" width="28.7633" height="36.7633" filterUnits="userSpaceOnUse" color-interpolation-filters="sRGB">
<feFlood flood-opacity="0" result="BackgroundImageFix"/>
<feColorMatrix in="SourceAlpha" type="matrix" values="0 0 0 0 0 0 0 0 0 0 0 0 0 0 0 0 0 0 127 0" result="hardAlpha"/>
<feOffset dy="4"/>
<feGaussianBlur stdDeviation="2"/>
<feComposite in2="hardAlpha" operator="out"/>
<feColorMatrix type="matrix" values="0 0 0 0 0 0 0 0 0 0 0 0 0 0 0 0 0 0 0.1 0"/>
<feBlend mode="normal" in2="BackgroundImageFix" result="effect1_dropShadow_111_18"/>
<feColorMatrix in="SourceAlpha" type="matrix" values="0 0 0 0 0 0 0 0 0 0 0 0 0 0 0 0 0 0 127 0" result="hardAlpha"/>
<feOffset dy="-4"/>
<feGaussianBlur stdDeviation="2"/>
<feComposite in2="hardAlpha" operator="out"/>
<feColorMatrix type="matrix" values="0 0 0 0 0 0 0 0 0 0 0 0 0 0 0 0 0 0 0.05 0"/>
<feBlend mode="normal" in2="effect1_dropShadow_111_18" result="effect2_dropShadow_111_18"/>
<feBlend mode="normal" in="SourceGraphic" in2="effect2_dropShadow_111_18" result="shape"/>
</filter>
<filter id="filter3_dd_111_18" x="570" y="0" width="28.7634" height="36.7633" filterUnits="userSpaceOnUse" color-interpolation-filters="sRGB">
<feFlood flood-opacity="0" result="BackgroundImageFix"/>
<feColorMatrix in="SourceAlpha" type="matrix" values="0 0 0 0 0 0 0 0 0 0 0 0 0 0 0 0 0 0 127 0" result="hardAlpha"/>
<feOffset dy="4"/>
<feGaussianBlur stdDeviation="2"/>
<feComposite in2="hardAlpha" operator="out"/>
<feColorMatrix type="matrix" values="0 0 0 0 0 0 0 0 0 0 0 0 0 0 0 0 0 0 0.1 0"/>
<feBlend mode="normal" in2="BackgroundImageFix" result="effect1_dropShadow_111_18"/>
<feColorMatrix in="SourceAlpha" type="matrix" values="0 0 0 0 0 0 0 0 0 0 0 0 0 0 0 0 0 0 127 0" result="hardAlpha"/>
<feOffset dy="-4"/>
<feGaussianBlur stdDeviation="2"/>
<feComposite in2="hardAlpha" operator="out"/>
<feColorMatrix type="matrix" values="0 0 0 0 0 0 0 0 0 0 0 0 0 0 0 0 0 0 0.05 0"/>
<feBlend mode="normal" in2="effect1_dropShadow_111_18" result="effect2_dropShadow_111_18"/>
<feBlend mode="normal" in="SourceGraphic" in2="effect2_dropShadow_111_18" result="shape"/>
</filter>
<filter id="filter4_dd_111_18" x="295" y="0" width="28.7634" height="36.7633" filterUnits="userSpaceOnUse" color-interpolation-filters="sRGB">
<feFlood flood-opacity="0" result="BackgroundImageFix"/>
<feColorMatrix in="SourceAlpha" type="matrix" values="0 0 0 0 0 0 0 0 0 0 0 0 0 0 0 0 0 0 127 0" result="hardAlpha"/>
<feOffset dy="4"/>
<feGaussianBlur stdDeviation="2"/>
<feComposite in2="hardAlpha" operator="out"/>
<feColorMatrix type="matrix" values="0 0 0 0 0 0 0 0 0 0 0 0 0 0 0 0 0 0 0.1 0"/>
<feBlend mode="normal" in2="BackgroundImageFix" result="effect1_dropShadow_111_18"/>
<feColorMatrix in="SourceAlpha" type="matrix" values="0 0 0 0 0 0 0 0 0 0 0 0 0 0 0 0 0 0 127 0" result="hardAlpha"/>
<feOffset dy="-4"/>
<feGaussianBlur stdDeviation="2"/>
<feComposite in2="hardAlpha" operator="out"/>
<feColorMatrix type="matrix" values="0 0 0 0 0 0 0 0 0 0 0 0 0 0 0 0 0 0 0.05 0"/>
<feBlend mode="normal" in2="effect1_dropShadow_111_18" result="effect2_dropShadow_111_18"/>
<feBlend mode="normal" in="SourceGraphic" in2="effect2_dropShadow_111_18" result="shape"/>
</filter>
<linearGradient id="paint0_linear_111_18" x1="4" y1="16" x2="298.968" y2="16" gradientUnits="userSpaceOnUse">
<stop stop-color="#5ABEA6"/>
<stop offset="1" stop-color="#863AAC"/>
</linearGradient>
</defs>
</svg>
