<svg width="98" height="24" viewBox="0 0 98 24" fill="none" xmlns="http://www.w3.org/2000/svg">
<path d="M19.1645 18.8011H15.5964L17.8282 5.00171H21.3961L19.1645 18.8011Z" fill="#00579F"/>
<path d="M32.0993 5.33896C31.3955 5.05975 30.2792 4.75146 28.899 4.75146C25.3754 4.75146 22.8941 6.63043 22.8789 9.31679C22.8496 11.2988 24.6554 12.3996 26.006 13.0605C27.3864 13.7358 27.8557 14.1765 27.8557 14.7785C27.8417 15.7029 26.7402 16.1291 25.7129 16.1291C24.2884 16.1291 23.5251 15.9094 22.3651 15.395L21.8953 15.1746L21.396 18.2722C22.2328 18.6535 23.7747 18.9918 25.3754 19.0066C29.1193 19.0066 31.5567 17.1567 31.5855 14.294C31.5998 12.7231 30.6462 11.5195 28.5905 10.5359C27.3425 9.90448 26.5783 9.47874 26.5783 8.83271C26.5929 8.24541 27.2247 7.64386 28.6334 7.64386C29.7934 7.6144 30.6457 7.89322 31.2913 8.17224L31.614 8.31877L32.0993 5.33896Z" fill="#00579F"/>
<path d="M36.8412 13.9125C37.1351 13.1197 38.2658 10.0515 38.2658 10.0515C38.2509 10.081 38.559 9.24412 38.7352 8.73038L38.9846 9.91941C38.9846 9.91941 39.6603 13.2225 39.807 13.9125C39.2493 13.9125 37.546 13.9125 36.8412 13.9125ZM41.2456 5.00171H38.4857C37.6346 5.00171 36.9879 5.25107 36.6207 6.14665L31.3208 18.8009H35.0647C35.0647 18.8009 35.6811 17.0977 35.8135 16.7309C36.2243 16.7309 39.8663 16.7309 40.3947 16.7309C40.4971 17.2154 40.8204 18.8009 40.8204 18.8009H44.1241L41.2456 5.00171Z" fill="#00579F"/>
<path d="M12.6162 5.00171L9.12184 14.4116L8.74 12.5031C8.09397 10.3011 6.06789 7.90855 3.80688 6.71892L7.00757 18.7865H10.7807L16.3891 5.00171H12.6162Z" fill="#00579F"/>
<path d="M5.87707 5.00171H0.136366L0.0776367 5.28053C4.55574 6.42567 7.52151 9.18597 8.74001 12.5037L7.49204 6.16167C7.28659 5.28033 6.65519 5.03078 5.87707 5.00171Z" fill="#FAA61A"/>
<path d="M72.9526 23.7065V22.1297C72.9526 21.5266 72.5852 21.1316 71.9545 21.1316C71.6391 21.1316 71.2962 21.2357 71.0605 21.5786C70.8768 21.2908 70.6135 21.1316 70.2185 21.1316C69.9552 21.1316 69.6919 21.2112 69.4837 21.499V21.1837H68.9326V23.7065H69.4837V22.3134C69.4837 21.8664 69.7195 21.6552 70.0869 21.6552C70.4543 21.6552 70.638 21.8909 70.638 22.3134V23.7065H71.1891V22.3134C71.1891 21.8664 71.4524 21.6552 71.7922 21.6552C72.1596 21.6552 72.3433 21.8909 72.3433 22.3134V23.7065H72.9526ZM81.1273 21.1837H80.2333V20.4213H79.6822V21.1837H79.1831V21.6827H79.6822V22.84C79.6822 23.4187 79.9179 23.7585 80.5486 23.7585C80.7844 23.7585 81.0477 23.6789 81.2314 23.5748L81.0722 23.1003C80.913 23.2044 80.7293 23.2319 80.5976 23.2319C80.3343 23.2319 80.2302 23.0727 80.2302 22.8125V21.6827H81.1242V21.1837H81.1273ZM85.8055 21.1285C85.4902 21.1285 85.2789 21.2878 85.1473 21.4959V21.1806H84.5962V23.7034H85.1473V22.2828C85.1473 21.8633 85.331 21.6245 85.6739 21.6245C85.778 21.6245 85.9096 21.6521 86.0168 21.6766L86.176 21.15C86.0658 21.1285 85.9096 21.1285 85.8055 21.1285ZM78.7361 21.3918C78.4728 21.2081 78.1054 21.1285 77.7105 21.1285C77.0797 21.1285 76.6603 21.4439 76.6603 21.943C76.6603 22.3624 76.9756 22.6012 77.5268 22.6778L77.7901 22.7053C78.0779 22.7574 78.2371 22.837 78.2371 22.9686C78.2371 23.1523 78.0258 23.284 77.6584 23.284C77.291 23.284 77.0001 23.1523 76.8164 23.0207L76.5531 23.4401C76.8409 23.6514 77.2359 23.7555 77.6308 23.7555C78.3657 23.7555 78.7882 23.4126 78.7882 22.9411C78.7882 22.4941 78.4453 22.2583 77.9217 22.1787L77.6584 22.1511C77.4227 22.1236 77.239 22.0715 77.239 21.9154C77.239 21.7317 77.4227 21.6276 77.7135 21.6276C78.0289 21.6276 78.3442 21.7593 78.5034 21.8389L78.7361 21.3918ZM93.3985 21.1285C93.0831 21.1285 92.8719 21.2878 92.7402 21.4959V21.1806H92.1891V23.7034H92.7402V22.2828C92.7402 21.8633 92.9239 21.6245 93.2668 21.6245C93.3709 21.6245 93.5026 21.6521 93.6098 21.6766L93.769 21.1561C93.6618 21.1285 93.5057 21.1285 93.3985 21.1285ZM86.3566 22.4451C86.3566 23.2074 86.8832 23.7585 87.6976 23.7585C88.0651 23.7585 88.3284 23.6789 88.5917 23.4707L88.3284 23.0237C88.1171 23.1829 87.9089 23.2595 87.6701 23.2595C87.2231 23.2595 86.9077 22.9441 86.9077 22.4451C86.9077 21.9705 87.2231 21.6552 87.6701 21.6307C87.9058 21.6307 88.1171 21.7103 88.3284 21.8664L88.5917 21.4194C88.3284 21.2081 88.0651 21.1316 87.6976 21.1316C86.8832 21.1285 86.3566 21.6827 86.3566 22.4451ZM91.4543 22.4451V21.1837H90.9032V21.499C90.7195 21.2633 90.4562 21.1316 90.1133 21.1316C89.403 21.1316 88.8519 21.6827 88.8519 22.4451C88.8519 23.2074 89.403 23.7585 90.1133 23.7585C90.4807 23.7585 90.744 23.6269 90.9032 23.3911V23.7065H91.4543V22.4451ZM89.4306 22.4451C89.4306 21.9981 89.7184 21.6307 90.1929 21.6307C90.6399 21.6307 90.9553 21.9736 90.9553 22.4451C90.9553 22.8921 90.6399 23.2595 90.1929 23.2595C89.7214 23.2319 89.4306 22.889 89.4306 22.4451ZM82.8357 21.1285C82.1009 21.1285 81.5743 21.6552 81.5743 22.442C81.5743 23.2319 82.1009 23.7555 82.8633 23.7555C83.2307 23.7555 83.5981 23.6514 83.8889 23.4126L83.6256 23.0176C83.4144 23.1768 83.1511 23.2809 82.8908 23.2809C82.5479 23.2809 82.2081 23.1217 82.1285 22.6778H83.993C83.993 22.5982 83.993 22.5461 83.993 22.4665C84.0175 21.6552 83.543 21.1285 82.8357 21.1285ZM82.8357 21.6031C83.1786 21.6031 83.4144 21.8144 83.4664 22.2063H82.1529C82.205 21.8664 82.4407 21.6031 82.8357 21.6031ZM96.5275 22.4451V20.1855H95.9764V21.499C95.7927 21.2633 95.5294 21.1316 95.1865 21.1316C94.4762 21.1316 93.9251 21.6827 93.9251 22.4451C93.9251 23.2074 94.4762 23.7585 95.1865 23.7585C95.5539 23.7585 95.8172 23.6269 95.9764 23.3911V23.7065H96.5275V22.4451ZM94.5038 22.4451C94.5038 21.9981 94.7916 21.6307 95.2661 21.6307C95.7131 21.6307 96.0285 21.9736 96.0285 22.4451C96.0285 22.8921 95.7131 23.2595 95.2661 23.2595C94.7916 23.2319 94.5038 22.889 94.5038 22.4451ZM76.0541 22.4451V21.1837H75.503V21.499C75.3193 21.2633 75.056 21.1316 74.7131 21.1316C74.0028 21.1316 73.4517 21.6827 73.4517 22.4451C73.4517 23.2074 74.0028 23.7585 74.7131 23.7585C75.0805 23.7585 75.3438 23.6269 75.503 23.3911V23.7065H76.0541V22.4451ZM74.0058 22.4451C74.0058 21.9981 74.2936 21.6307 74.7682 21.6307C75.2152 21.6307 75.5305 21.9736 75.5305 22.4451C75.5305 22.8921 75.2152 23.2595 74.7682 23.2595C74.2936 23.2319 74.0058 22.889 74.0058 22.4451Z" fill="black"/>
<path d="M86.831 2.02417H78.5522V16.8978H86.831V2.02417Z" fill="#FF5A00"/>
<path d="M79.1033 9.46059C79.1033 6.43871 80.524 3.75668 82.7039 2.02377C81.0995 0.762358 79.0758 0 76.8683 0C71.639 0 67.4077 4.23124 67.4077 9.46059C67.4077 14.6899 71.639 18.9212 76.8683 18.9212C79.0758 18.9212 81.0995 18.1588 82.7039 16.8974C80.5209 15.189 79.1033 12.4825 79.1033 9.46059Z" fill="#EB001B"/>
<path d="M98.0003 9.46059C98.0003 14.6899 93.769 18.9212 88.5397 18.9212C86.3322 18.9212 84.3084 18.1588 82.7041 16.8974C84.9116 15.1614 86.3046 12.4825 86.3046 9.46059C86.3046 6.43871 84.884 3.75668 82.7041 2.02377C84.3054 0.762358 86.3291 0 88.5366 0C93.769 0 98.0003 4.2588 98.0003 9.46059Z" fill="#F79E1B"/>
</svg>
